<svg width="17" height="18" viewBox="0 0 17 18" fill="none" xmlns="http://www.w3.org/2000/svg">
<path d="M8.03503 0C7.40006 0 6.88707 0.502734 6.88707 1.125V1.8C4.26829 2.32031 2.29523 4.59141 2.29523 7.3125V7.97344C2.29523 9.62578 1.67462 11.2219 0.555356 12.4594L0.28989 12.7512C-0.0114488 13.0816 -0.0831963 13.5563 0.0997597 13.9605C0.282716 14.3648 0.695264 14.625 1.14727 14.625H14.9228C15.3748 14.625 15.7838 14.3648 15.9703 13.9605C16.1568 13.5563 16.0815 13.0816 15.7802 12.7512L15.5147 12.4594C14.3954 11.2219 13.7748 9.6293 13.7748 7.97344V7.3125C13.7748 4.59141 11.8018 2.32031 9.18299 1.8V1.125C9.18299 0.502734 8.66999 0 8.03503 0ZM9.66011 17.3426C10.0906 16.9207 10.3309 16.3477 10.3309 15.75H8.03503H5.73911C5.73911 16.3477 5.97946 16.9207 6.40995 17.3426C6.84043 17.7645 7.42517 18 8.03503 18C8.64488 18 9.22962 17.7645 9.66011 17.3426Z" fill="white"/>
</svg>
