<svg width="16" height="18" viewBox="0 0 16 18" fill="none" xmlns="http://www.w3.org/2000/svg">
<path d="M5.3801 0.84375C5.3801 0.376172 5.00137 0 4.53061 0C4.05985 0 3.68112 0.376172 3.68112 0.84375V2.25H2.26531C1.01585 2.25 0 3.25898 0 4.5V5.0625V6.75V15.75C0 16.991 1.01585 18 2.26531 18H13.5918C14.8413 18 15.8571 16.991 15.8571 15.75V6.75V5.0625V4.5C15.8571 3.25898 14.8413 2.25 13.5918 2.25H12.176V0.84375C12.176 0.376172 11.7973 0 11.3265 0C10.8558 0 10.477 0.376172 10.477 0.84375V2.25H5.3801V0.84375ZM1.69898 6.75H4.53061V8.71875H1.69898V6.75ZM1.69898 10.4062H4.53061V12.6562H1.69898V10.4062ZM6.22959 10.4062H9.62755V12.6562H6.22959V10.4062ZM11.3265 10.4062H14.1582V12.6562H11.3265V10.4062ZM14.1582 8.71875H11.3265V6.75H14.1582V8.71875ZM14.1582 14.3438V15.75C14.1582 16.0594 13.9033 16.3125 13.5918 16.3125H11.3265V14.3438H14.1582ZM9.62755 14.3438V16.3125H6.22959V14.3438H9.62755ZM4.53061 14.3438V16.3125H2.26531C1.95383 16.3125 1.69898 16.0594 1.69898 15.75V14.3438H4.53061ZM9.62755 8.71875H6.22959V6.75H9.62755V8.71875Z" fill="white"/>
</svg>
