<svg width="22" height="18" viewBox="0 0 22 18" fill="none" xmlns="http://www.w3.org/2000/svg">
<path d="M20.8512 9.90804C21.3535 9.4058 21.3535 8.59018 20.8512 8.08795L15.7084 2.94509C15.2061 2.44286 14.3905 2.44286 13.8883 2.94509C13.386 3.44732 13.386 4.26295 13.8883 4.76518L16.8374 7.71429H8.37176C7.6606 7.71429 7.08604 8.28884 7.08604 9C7.08604 9.71116 7.6606 10.2857 8.37176 10.2857H16.8374L13.8883 13.2348C13.386 13.7371 13.386 14.5527 13.8883 15.0549C14.3905 15.5571 15.2061 15.5571 15.7084 15.0549L20.8512 9.91205V9.90804ZM7.08604 2.57143C7.7972 2.57143 8.37176 1.99688 8.37176 1.28571C8.37176 0.574554 7.7972 0 7.08604 0H4.51461C2.38515 0 0.657471 1.72768 0.657471 3.85714V14.1429C0.657471 16.2723 2.38515 18 4.51461 18H7.08604C7.7972 18 8.37176 17.4254 8.37176 16.7143C8.37176 16.0031 7.7972 15.4286 7.08604 15.4286H4.51461C3.80345 15.4286 3.2289 14.854 3.2289 14.1429V3.85714C3.2289 3.14598 3.80345 2.57143 4.51461 2.57143H7.08604Z" fill="#5B6B96"/>
</svg>
