<?xml version="1.0" encoding="utf-8"?>
<!-- Generator: Adobe Illustrator 27.8.0, SVG Export Plug-In . SVG Version: 6.00 Build 0)  -->
<svg version="1.1" id="Layer_1" xmlns="http://www.w3.org/2000/svg" xmlns:xlink="http://www.w3.org/1999/xlink" x="0px" y="0px"
	 viewBox="0 0 384 512" style="enable-background:new 0 0 384 512;" xml:space="preserve">
<style type="text/css">
	.st0{fill:#FFFFFF;}
</style>
<path class="st0" d="M192,0c-41.8,0-77.4,26.7-90.5,64H64C28.7,64,0,92.7,0,128v320c0,35.3,28.7,64,64,64h256c35.3,0,64-28.7,64-64
	V128c0-35.3-28.7-64-64-64h-37.5C269.4,26.7,233.8,0,192,0z M192,64c17.7,0,32,14.3,32,32s-14.3,32-32,32s-32-14.3-32-32
	S174.3,64,192,64z M105.8,229.3c7.9-22.3,29.1-37.3,52.8-37.3h58.3c34.9,0,63.1,28.3,63.1,63.1c0,22.6-12.1,43.5-31.7,54.8
	L216,328.4c-0.2,13-10.9,23.6-24,23.6c-13.3,0-24-10.7-24-24v-13.5c0-8.6,4.6-16.5,12.1-20.8l44.3-25.4c4.7-2.7,7.6-7.7,7.6-13.1
	c0-8.4-6.8-15.1-15.1-15.1h-58.3c-3.4,0-6.4,2.1-7.5,5.3l-0.4,1.2c-4.4,12.5-18.2,19-30.6,14.6s-19-18.2-14.6-30.6l0.4-1.2
	L105.8,229.3z M160,416c0-17.7,14.3-32,32-32s32,14.3,32,32s-14.3,32-32,32S160,433.7,160,416z"/>
</svg>
