<svg width="13" height="18" viewBox="0 0 13 18" fill="none" xmlns="http://www.w3.org/2000/svg">
<path d="M3.50357 5.14286C3.50357 3.72455 4.6764 2.57143 6.11895 2.57143H7.42665C8.86919 2.57143 10.042 3.72455 10.042 5.14286V5.2875C10.042 6.16339 9.58842 6.97902 8.84059 7.44911L7.11607 8.53795C6.08626 9.18884 5.46511 10.3098 5.46511 11.5112V11.5714C5.46511 12.2826 6.04948 12.8571 6.7728 12.8571C7.49612 12.8571 8.08049 12.2826 8.08049 11.5714V11.5152C8.08049 11.1857 8.25213 10.8804 8.53001 10.7036L10.2545 9.61473C11.7502 8.66652 12.6574 7.03929 12.6574 5.2875V5.14286C12.6574 2.30223 10.3158 0 7.42665 0H6.11895C3.22977 0 0.888184 2.30223 0.888184 5.14286C0.888184 5.85402 1.47256 6.42857 2.19588 6.42857C2.91919 6.42857 3.50357 5.85402 3.50357 5.14286ZM6.7728 18C7.20633 18 7.6221 17.8307 7.92865 17.5293C8.2352 17.2279 8.40741 16.8191 8.40741 16.3929C8.40741 15.9666 8.2352 15.5578 7.92865 15.2564C7.6221 14.955 7.20633 14.7857 6.7728 14.7857C6.33927 14.7857 5.9235 14.955 5.61695 15.2564C5.3104 15.5578 5.13818 15.9666 5.13818 16.3929C5.13818 16.8191 5.3104 17.2279 5.61695 17.5293C5.9235 17.8307 6.33927 18 6.7728 18Z" fill="#5B6B96"/>
</svg>
