<svg width="21" height="18" viewBox="0 0 21 18" fill="none" xmlns="http://www.w3.org/2000/svg">
<path d="M9.92673 0.0763445C9.81249 0.12047 9.64522 0.20872 9.55954 0.270496C9.26986 0.477885 0.0531703 8.80876 0.0286904 8.88378C-0.0243494 9.02498 0.000130488 9.28532 0.0694902 9.39563C0.10621 9.45741 0.322449 9.73981 0.542768 10.0266C0.995647 10.6047 1.05277 10.64 1.37101 10.565C1.41997 10.5517 3.47628 8.72493 5.94059 6.50542C8.4049 4.28591 10.4327 2.46794 10.4449 2.46794C10.4571 2.46794 12.493 4.29473 14.9696 6.52307C18.3927 9.60743 19.4984 10.5826 19.5963 10.6003C19.6697 10.6091 19.7758 10.6003 19.837 10.5782C19.9309 10.5429 20.6081 9.72657 20.8203 9.39563C20.9141 9.25002 20.9101 8.94997 20.8121 8.81759C20.7673 8.76023 20.0981 8.14688 19.3229 7.45411L17.9153 6.19654L17.9113 3.24896V0.296971L17.7929 0.169007L17.6746 0.0410442H16.2589C14.7044 0.0410442 14.6962 0.0410442 14.6106 0.314622C14.582 0.402872 14.5657 0.95444 14.5657 1.81047V3.17395L12.95 1.7134C11.8362 0.707337 11.2609 0.217546 11.1018 0.13812C10.7958 -0.0163193 10.2409 -0.0472069 9.92673 0.0763445Z" fill="#5B6B96"/>
<path d="M6.70257 6.93776L2.97754 10.256V13.786V17.3205L3.07138 17.5146C3.12442 17.6293 3.23458 17.7661 3.33658 17.8456L3.5161 17.9779L6.16401 17.9912L8.81192 18V15.3083V12.6167H10.4439H12.0759V15.3083V18L14.7238 17.9912L17.3717 17.9779L17.5512 17.8456C17.6451 17.7705 17.7675 17.6293 17.8164 17.5367L17.9103 17.3602V13.8081V10.256L14.1975 6.94658C12.1534 5.1242 10.4684 3.63276 10.4521 3.62835C10.4358 3.61952 8.74664 5.11096 6.70257 6.93776Z" fill="#5B6B96"/>
</svg>
