<svg width="100" height="100" viewBox="0 0 100 100" fill="none" xmlns="http://www.w3.org/2000/svg">
<path d="M75 62.5H45C43.625 62.5 42.5 61.375 42.5 60V20C42.5 18.625 43.625 17.5 45 17.5H65.8594C66.5156 17.5 67.1562 17.7656 67.625 18.2344L76.7656 27.375C77.2344 27.8437 77.5 28.4844 77.5 29.1406V60C77.5 61.375 76.375 62.5 75 62.5ZM45 70H75C80.5156 70 85 65.5156 85 60V29.1406C85 26.4844 83.9531 23.9375 82.0781 22.0625L72.9219 12.9219C71.0469 11.0469 68.5156 10 65.8594 10H45C39.4844 10 35 14.4844 35 20V60C35 65.5156 39.4844 70 45 70ZM25 30C19.4844 30 15 34.4844 15 40V80C15 85.5156 19.4844 90 25 90H55C60.5156 90 65 85.5156 65 80V77.5H57.5V80C57.5 81.375 56.375 82.5 55 82.5H25C23.625 82.5 22.5 81.375 22.5 80V40C22.5 38.625 23.625 37.5 25 37.5H27.5V30H25Z" fill="white"/>
</svg>
