<svg width="100" height="100" viewBox="0 0 100 100" fill="none" xmlns="http://www.w3.org/2000/svg">
<path d="M55 15C55 12.2344 52.7656 10 50 10C47.2344 10 45 12.2344 45 15V47.9219L38.5313 41.4531C36.5781 39.5 33.4063 39.5 31.4531 41.4531C29.5 43.4062 29.5 46.5781 31.4531 48.5313L46.4531 63.5313C48.4062 65.4844 51.5781 65.4844 53.5313 63.5313L68.5313 48.5313C70.4844 46.5781 70.4844 43.4062 68.5313 41.4531C66.5781 39.5 63.4062 39.5 61.4531 41.4531L55 47.9219V15ZM25 60C19.4844 60 15 64.4844 15 70V75C15 80.5156 19.4844 85 25 85H75C80.5156 85 85 80.5156 85 75V70C85 64.4844 80.5156 60 75 60H67.6719L58.8281 68.8438C53.9531 73.7188 46.0312 73.7188 41.1562 68.8438L32.3281 60H25ZM72.5 68.75C74.5781 68.75 76.25 70.4219 76.25 72.5C76.25 74.5781 74.5781 76.25 72.5 76.25C70.4219 76.25 68.75 74.5781 68.75 72.5C68.75 70.4219 70.4219 68.75 72.5 68.75Z" fill="white"/>
</svg>
