<svg width="100" height="100" viewBox="0 0 100 100" fill="none" xmlns="http://www.w3.org/2000/svg">
<rect width="100" height="100" rx="50" fill="#F24405"/>
<path d="M60.5985 24.3187L55.6876 29.2297L70.7704 44.3125L75.6813 39.4016C77.1688 37.925 78.0001 35.9125 78.0001 33.8125C78.0001 31.7125 77.1688 29.7 75.6813 28.2234L71.7766 24.3187C70.3001 22.8312 68.2876 22 66.1876 22C64.0876 22 62.0751 22.8312 60.5985 24.3187ZM51.9797 32.9375L28.4422 56.4641C27.2719 57.6344 26.4188 59.1 25.9704 60.6969L22.0985 74.675C21.8469 75.5828 22.0985 76.5672 22.7766 77.2344C23.4547 77.9016 24.4282 78.1641 25.336 77.9125L39.3141 74.0297C40.911 73.5813 42.3657 72.7391 43.5469 71.5578L67.0626 48.0203L51.9797 32.9375Z" fill="white"/>
</svg>
