<svg width="100" height="100" viewBox="0 0 100 100" fill="none" xmlns="http://www.w3.org/2000/svg">
<path d="M20 72.5H80C81.375 72.5 82.5 71.375 82.5 70V32.5C82.5 31.125 81.375 30 80 30H56.6719C53.9688 30 51.3281 29.125 49.1719 27.5L43.1719 23C42.7344 22.6719 42.2188 22.5 41.6719 22.5H20C18.625 22.5 17.5 23.625 17.5 25V70C17.5 71.375 18.625 72.5 20 72.5ZM80 80H20C14.4844 80 10 75.5156 10 70V25C10 19.4844 14.4844 15 20 15H41.6719C43.8281 15 45.9375 15.7031 47.6719 17L53.6719 21.5C54.5312 22.1563 55.5938 22.5 56.6719 22.5H80C85.5156 22.5 90 26.9844 90 32.5V70C90 75.5156 85.5156 80 80 80Z" fill="white"/>
</svg>
