<svg width="25" height="25" viewBox="0 0 25 25" fill="none" xmlns="http://www.w3.org/2000/svg">
<path d="M12.5 5C16.6406 5 20 8.35938 20 12.5C20 16.6406 16.6406 20 12.5 20C9.95312 20 7.69922 18.7305 6.34375 16.7852C5.94922 16.2188 5.16797 16.082 4.60156 16.4766C4.03516 16.8711 3.89844 17.6523 4.29297 18.2188C6.09766 20.8047 9.10156 22.5 12.5 22.5C18.0234 22.5 22.5 18.0234 22.5 12.5C22.5 6.97656 18.0234 2.5 12.5 2.5C9.15234 2.5 6.19141 4.14453 4.375 6.66797V5.625C4.375 4.93359 3.81641 4.375 3.125 4.375C2.43359 4.375 1.875 4.93359 1.875 5.625V10C1.875 10.6914 2.43359 11.25 3.125 11.25H4.08594C4.10547 11.25 4.125 11.25 4.14453 11.25H7.50391C8.19531 11.25 8.75391 10.6914 8.75391 10C8.75391 9.30859 8.19531 8.75 7.50391 8.75H6.00781C7.30078 6.50781 9.72656 5 12.5 5ZM13.4375 8.4375C13.4375 7.91797 13.0195 7.5 12.5 7.5C11.9805 7.5 11.5625 7.91797 11.5625 8.4375V12.5C11.5625 12.75 11.6602 12.9883 11.8359 13.1641L14.6484 15.9766C15.0156 16.3438 15.6094 16.3438 15.9727 15.9766C16.3359 15.6094 16.3398 15.0156 15.9727 14.6523L13.4336 12.1133V8.4375H13.4375Z" fill="white"/>
</svg>
