<svg width="40" height="40" viewBox="0 0 40 40" fill="none" xmlns="http://www.w3.org/2000/svg">
<circle cx="20" cy="20" r="20" fill="#0554F2"/>
<path d="M20 6.66666C21.8385 6.66666 23.3333 8.16145 23.3333 9.99999C23.3333 11.8385 21.8385 13.3333 20 13.3333C18.1614 13.3333 16.6666 11.8385 16.6666 9.99999C16.6666 8.16145 18.1614 6.66666 20 6.66666ZM25 22.9167C25 24.2187 24.3385 25.3646 23.3333 26.0364V30.8333C23.3333 32.2135 22.2135 33.3333 20.8333 33.3333H19.1666C17.7864 33.3333 16.6666 32.2135 16.6666 30.8333V26.0364C15.6614 25.3646 15 24.2187 15 22.9167V20.8333C15 18.0729 17.2395 15.8333 20 15.8333C22.7604 15.8333 25 18.0729 25 20.8333V22.9167ZM11.6666 8.33332C13.276 8.33332 14.5833 9.64061 14.5833 11.25C14.5833 12.8594 13.276 14.1667 11.6666 14.1667C10.0573 14.1667 8.74996 12.8594 8.74996 11.25C8.74996 9.64061 10.0573 8.33332 11.6666 8.33332ZM12.5 20.8333V22.5C12.5 24.1927 13.1302 25.7344 14.1666 26.9114V30.8333C14.1666 30.8958 14.1666 30.9635 14.1718 31.026C13.7291 31.4219 13.1458 31.6667 12.5 31.6667H10.8333C9.45308 31.6667 8.33329 30.5469 8.33329 29.1667V26.2187C7.3385 25.6458 6.66663 24.5677 6.66663 23.3333V21.6667C6.66663 18.9062 8.90621 16.6667 11.6666 16.6667C12.3281 16.6667 12.9583 16.7969 13.5364 17.026C12.8802 18.1406 12.5 19.4427 12.5 20.8333ZM25.8333 30.8333V26.9114C26.8698 25.7396 27.5 24.1927 27.5 22.5V20.8333C27.5 19.4427 27.1198 18.1458 26.4635 17.026C27.0416 16.7917 27.6718 16.6667 28.3333 16.6667C31.0937 16.6667 33.3333 18.9062 33.3333 21.6667V23.3333C33.3333 24.5677 32.6614 25.6458 31.6666 26.2187V29.1667C31.6666 30.5469 30.5468 31.6667 29.1666 31.6667H27.5C26.8593 31.6667 26.2708 31.4271 25.8281 31.026C25.8281 30.9635 25.8333 30.8958 25.8333 30.8333ZM28.3333 8.33332C29.9427 8.33332 31.25 9.64061 31.25 11.25C31.25 12.8594 29.9427 14.1667 28.3333 14.1667C26.7239 14.1667 25.4166 12.8594 25.4166 11.25C25.4166 9.64061 26.7239 8.33332 28.3333 8.33332Z" fill="white"/>
</svg>
