<svg width="25" height="25" viewBox="0 0 25 25" fill="none" xmlns="http://www.w3.org/2000/svg">
<circle cx="12.5" cy="12.5" r="12.5" fill="#5AA26D"/>
<path d="M6.32229 4.68176C5.41747 4.68176 4.68182 5.39593 4.68182 6.27433V15.8297C4.68182 16.7081 5.41747 17.4223 6.32229 17.4223H7.37287V13.6353C7.37287 12.7569 8.10852 12.0427 9.01333 12.0427H13.5246L14.5246 8.92446C14.5246 8.50144 14.3529 8.09583 14.0453 7.79722L11.3129 5.14709C11.0053 4.84848 10.5901 4.68176 10.1543 4.68176H6.32229ZM13.0251 9.06132H10.6285C10.2876 9.06132 10.0133 8.79507 10.0133 8.46411V6.13747L13.0251 9.06132Z" fill="white"/>
<path d="M8.5 13.8336C8.5 13.3752 8.86628 13.0002 9.31395 13.0002H10.6163C11.9634 13.0002 13.0581 14.1211 13.0581 15.5002C13.0581 16.8794 11.9634 18.0002 10.6163 18.0002H10.1279V19.1669C10.1279 19.6252 9.76163 20.0002 9.31395 20.0002C8.86628 20.0002 8.5 19.6252 8.5 19.1669V13.8336Z" fill="white"/>
<path d="M13.7093 13.8336C13.7093 13.3752 14.0756 13.0002 14.5233 13.0002H15.8256C16.9936 13.0002 17.9419 13.9711 17.9419 15.1669V17.8336C17.9419 19.0294 16.9936 20.0002 15.8256 20.0002H14.5233C14.0756 20.0002 13.7093 19.6252 13.7093 19.1669V13.8336Z" fill="white"/>
<path d="M18.9186 19.1669V13.8336C18.9186 13.3752 19.2849 13.0002 19.7326 13.0002H21.686C22.1337 13.0002 22.5 13.3752 22.5 13.8336C22.5 14.2919 22.1337 14.6669 21.686 14.6669H20.5465V15.6669H21.686C22.1337 15.6669 22.5 16.0419 22.5 16.5002C22.5 16.9586 22.1337 17.3336 21.686 17.3336H20.5465V19.1669C20.5465 19.6252 20.1802 20.0002 19.7326 20.0002C19.2849 20.0002 18.9186 19.6252 18.9186 19.1669Z" fill="white"/>
<path d="M10.1279 16.3336H10.6163C11.064 16.3336 11.4303 15.9586 11.4303 15.5003C11.4303 15.0419 11.064 14.6669 10.6163 14.6669H10.1279V16.3336Z" fill="#5AA26D"/>
<path d="M15.3372 14.6669V18.3336H15.8256C16.0942 18.3336 16.314 18.1086 16.314 17.8336V15.1669C16.314 14.8919 16.0942 14.6669 15.8256 14.6669H15.3372Z" fill="#5AA26D"/>
</svg>
