<svg width="18" height="24" viewBox="0 0 18 24" fill="none" xmlns="http://www.w3.org/2000/svg">
<path d="M5.61538 8.14286C5.61538 6.72455 6.78822 5.57143 8.23077 5.57143H9.53846C10.981 5.57143 12.1538 6.72455 12.1538 8.14286V8.2875C12.1538 9.16339 11.7002 9.97902 10.9524 10.4491L9.22788 11.5379C8.19808 12.1888 7.57692 13.3098 7.57692 14.5112V14.5714C7.57692 15.2826 8.1613 15.8571 8.88462 15.8571C9.60793 15.8571 10.1923 15.2826 10.1923 14.5714V14.5152C10.1923 14.1857 10.3639 13.8804 10.6418 13.7036L12.3663 12.6147C13.862 11.6665 14.7692 10.0393 14.7692 8.2875V8.14286C14.7692 5.30223 12.4276 3 9.53846 3H8.23077C5.34159 3 3 5.30223 3 8.14286C3 8.85402 3.58438 9.42857 4.30769 9.42857C5.03101 9.42857 5.61538 8.85402 5.61538 8.14286ZM8.88462 21C9.31814 21 9.73391 20.8307 10.0405 20.5293C10.347 20.2279 10.5192 19.8191 10.5192 19.3929C10.5192 18.9666 10.347 18.5578 10.0405 18.2564C9.73391 17.955 9.31814 17.7857 8.88462 17.7857C8.45109 17.7857 8.03532 17.955 7.72877 18.2564C7.42222 18.5578 7.25 18.9666 7.25 19.3929C7.25 19.8191 7.42222 20.2279 7.72877 20.5293C8.03532 20.8307 8.45109 21 8.88462 21Z" fill="white"/>
</svg>
