<svg width="30" height="30" viewBox="0 0 30 30" fill="none" xmlns="http://www.w3.org/2000/svg">
<path d="M19.9391 26.5611L15.4391 22.0611C14.8531 21.4752 14.8531 20.5236 15.4391 19.9377C16.025 19.3517 16.9766 19.3517 17.5625 19.9377L19.4984 21.8783L19.4984 4.50175C19.4984 3.67206 20.1688 3.00175 20.9984 3.00175C21.8281 3.00175 22.4984 3.67206 22.4984 4.50175L22.4984 21.8783L24.4391 19.9377C25.025 19.3517 25.9766 19.3517 26.5625 19.9377C27.1484 20.5236 27.1484 21.4752 26.5625 22.0611L22.0625 26.5611C21.4766 27.1471 20.525 27.1471 19.9391 26.5611ZM3.43906 7.93768L7.93906 3.43768C8.525 2.85174 9.47656 2.85174 10.0625 3.43768L14.5625 7.93768C15.1484 8.52362 15.1484 9.47518 14.5625 10.0611C13.9766 10.6471 13.025 10.6471 12.4391 10.0611L10.4984 8.12518L10.4984 25.5017C10.4984 26.3314 9.82812 27.0017 8.99844 27.0017C8.16875 27.0017 7.49844 26.3314 7.49844 25.5017L7.49844 8.12518L5.55781 10.0658C4.97187 10.6517 4.02031 10.6517 3.43438 10.0658C2.84844 9.47987 2.84844 8.52831 3.43438 7.94237L3.43906 7.93768Z" fill="#405684"/>
</svg>
