<svg width="100" height="100" viewBox="0 0 100 100" fill="none" xmlns="http://www.w3.org/2000/svg">
<rect width="100" height="100" rx="50" fill="#A20101"/>
<path d="M40.7246 23.4269L39.8002 26.2H29.6002C27.7196 26.2 26.2002 27.7194 26.2002 29.6C26.2002 31.4806 27.7196 33 29.6002 33H70.4002C72.2808 33 73.8002 31.4806 73.8002 29.6C73.8002 27.7194 72.2808 26.2 70.4002 26.2H60.2002L59.2758 23.4269C58.8083 22.035 57.5121 21.1 56.0458 21.1H43.9546C42.4883 21.1 41.1921 22.035 40.7246 23.4269ZM70.4002 38.1H29.6002L31.8421 72.4293C32.0121 75.1175 34.2433 77.2 36.9314 77.2H63.0689C65.7571 77.2 67.9883 75.1175 68.1583 72.4293L70.4002 38.1Z" fill="white"/>
</svg>
