<svg width="44" height="39" viewBox="0 0 44 39" fill="none" xmlns="http://www.w3.org/2000/svg">
<path d="M2.71429 0.875C4.21562 0.875 5.42857 2.08795 5.42857 3.58929V32.0893C5.42857 32.8357 6.03929 33.4464 6.78571 33.4464H40.7143C42.2156 33.4464 43.4286 34.6594 43.4286 36.1607C43.4286 37.6621 42.2156 38.875 40.7143 38.875H6.78571C3.03661 38.875 0 35.8384 0 32.0893V3.58929C0 2.08795 1.21295 0.875 2.71429 0.875ZM13.5714 17.1607C15.0728 17.1607 16.2857 18.3737 16.2857 19.875V25.3036C16.2857 26.8049 15.0728 28.0179 13.5714 28.0179C12.0701 28.0179 10.8571 26.8049 10.8571 25.3036V19.875C10.8571 18.3737 12.0701 17.1607 13.5714 17.1607ZM24.4286 11.7321V25.3036C24.4286 26.8049 23.2156 28.0179 21.7143 28.0179C20.2129 28.0179 19 26.8049 19 25.3036V11.7321C19 10.2308 20.2129 9.01786 21.7143 9.01786C23.2156 9.01786 24.4286 10.2308 24.4286 11.7321ZM29.8571 14.4464C31.3585 14.4464 32.5714 15.6594 32.5714 17.1607V25.3036C32.5714 26.8049 31.3585 28.0179 29.8571 28.0179C28.3558 28.0179 27.1429 26.8049 27.1429 25.3036V17.1607C27.1429 15.6594 28.3558 14.4464 29.8571 14.4464ZM40.7143 6.30357V25.3036C40.7143 26.8049 39.5013 28.0179 38 28.0179C36.4987 28.0179 35.2857 26.8049 35.2857 25.3036V6.30357C35.2857 4.80223 36.4987 3.58929 38 3.58929C39.5013 3.58929 40.7143 4.80223 40.7143 6.30357Z" fill="white"/>
</svg>
