<svg width="38" height="38" viewBox="0 0 38 38" fill="none" xmlns="http://www.w3.org/2000/svg">
<path d="M30.8705 15.4352C30.8705 18.8414 29.7648 21.9878 27.9022 24.5405L37.2969 33.9427C38.2245 34.8703 38.2245 36.3767 37.2969 37.3043C36.3693 38.2319 34.8629 38.2319 33.9353 37.3043L24.5405 27.9022C21.9878 29.7722 18.8414 30.8705 15.4352 30.8705C6.90875 30.8705 0 23.9617 0 15.4352C0 6.90875 6.90875 0 15.4352 0C23.9617 0 30.8705 6.90875 30.8705 15.4352ZM7.71762 16.0289V20.7782C7.71762 21.7652 8.51164 22.5592 9.49861 22.5592C10.4856 22.5592 11.2796 21.7652 11.2796 20.7782V16.0289C11.2796 15.0419 10.4856 14.2479 9.49861 14.2479C8.51164 14.2479 7.71762 15.0419 7.71762 16.0289ZM13.6542 8.90495V20.7782C13.6542 21.7652 14.4483 22.5592 15.4352 22.5592C16.4222 22.5592 17.2162 21.7652 17.2162 20.7782V8.90495C17.2162 7.91798 16.4222 7.12396 15.4352 7.12396C14.4483 7.12396 13.6542 7.91798 13.6542 8.90495ZM19.5909 13.6542V20.7782C19.5909 21.7652 20.3849 22.5592 21.3719 22.5592C22.3588 22.5592 23.1529 21.7652 23.1529 20.7782V13.6542C23.1529 12.6673 22.3588 11.8733 21.3719 11.8733C20.3849 11.8733 19.5909 12.6673 19.5909 13.6542Z" fill="white"/>
</svg>
