<svg width="22" height="17" viewBox="0 0 22 17" fill="none" xmlns="http://www.w3.org/2000/svg">
<path d="M20.4574 8.92291C22.5142 6.88064 22.5142 3.57325 20.4574 1.53098C18.6373 -0.276332 15.7688 -0.511284 13.6756 0.974331L13.6174 1.01409C13.0932 1.3864 12.973 2.10933 13.348 2.62622C13.7229 3.14311 14.451 3.26601 14.9715 2.8937L15.0298 2.85394C16.1983 2.02619 17.7964 2.15632 18.8084 3.1648C19.9551 4.30341 19.9551 6.14687 18.8084 7.28548L14.724 11.3483C13.5773 12.4869 11.7208 12.4869 10.5741 11.3483C9.55845 10.3398 9.4274 8.75302 10.261 7.59634L10.3011 7.53851C10.676 7.018 10.5522 6.29507 10.0317 5.92638C9.51113 5.55769 8.77943 5.67697 8.40812 6.19386L8.36808 6.2517C6.86829 8.3265 7.10491 11.1748 8.92504 12.9821C10.9818 15.0244 14.3126 15.0244 16.3694 12.9821L20.4574 8.92291ZM1.54257 8.07709C-0.514189 10.1194 -0.514189 13.4267 1.54257 15.469C3.3627 17.2763 6.23124 17.5113 8.3244 16.0257L8.38264 15.9859C8.90684 15.6136 9.02697 14.8907 8.65202 14.3738C8.27707 13.8569 7.54902 13.734 7.02846 14.1063L6.97022 14.1461C5.80169 14.9738 4.20361 14.8437 3.19161 13.8352C2.04492 12.693 2.04492 10.8495 3.19161 9.7109L7.276 5.65167C8.42269 4.51306 10.2792 4.51306 11.4259 5.65167C12.4415 6.66015 12.5726 8.24698 11.739 9.40727L11.6989 9.46511C11.324 9.98561 11.4478 10.7085 11.9683 11.0772C12.4889 11.4459 13.2206 11.3266 13.5919 10.8098L13.6319 10.7519C15.1317 8.6735 14.8951 5.82517 13.075 4.01785C11.0182 1.97558 7.68735 1.97558 5.6306 4.01785L1.54257 8.07709Z" fill="white"/>
</svg>
