<?xml version="1.0" encoding="utf-8"?>
<!-- Generator: Adobe Illustrator 27.8.0, SVG Export Plug-In . SVG Version: 6.00 Build 0)  -->
<svg version="1.1" id="Layer_1" xmlns="http://www.w3.org/2000/svg" xmlns:xlink="http://www.w3.org/1999/xlink" x="0px" y="0px"
	 viewBox="0 0 512 512" style="enable-background:new 0 0 512 512;" xml:space="preserve">
<style type="text/css">
	.st0{fill:#FFFFFF;}
</style>
<path class="st0" d="M315.4,15.5C309.7,5.9,299.2,0,288,0s-21.7,5.9-27.4,15.5l-96,160c-5.9,9.9-6.1,22.2-0.4,32.2
	s16.3,16.2,27.8,16.2h192c11.5,0,22.2-6.2,27.8-16.2s5.5-22.3-0.4-32.2L315.4,15.5z M288,312v144c0,22.1,17.9,40,40,40h144
	c22.1,0,40-17.9,40-40V312c0-22.1-17.9-40-40-40H328C305.9,272,288,289.9,288,312z M128,512c70.7,0,128-57.3,128-128
	s-57.3-128-128-128S0,313.3,0,384S57.3,512,128,512z"/>
</svg>
