<?xml version="1.0" encoding="UTF-8" standalone="no"?>
<!DOCTYPE svg PUBLIC "-//W3C//DTD SVG 1.1//EN" "http://www.w3.org/Graphics/SVG/1.1/DTD/svg11.dtd">
<svg width="100%" height="100%" viewBox="0 0 384 512" version="1.1" xmlns="http://www.w3.org/2000/svg" xmlns:xlink="http://www.w3.org/1999/xlink" xml:space="preserve" xmlns:serif="http://www.serif.com/" style="fill-rule:evenodd;clip-rule:evenodd;stroke-linejoin:round;stroke-miterlimit:2;">
    <path d="M64,464C55.2,464 48,456.8 48,448L48,64C48,55.2 55.2,48 64,48L224,48L224,128C224,145.7 238.3,160 256,160L336,160L336,448C336,456.8 328.8,464 320,464L64,464ZM64,0C28.7,0 0,28.7 0,64L0,448C0,483.3 28.7,512 64,512L320,512C355.3,512 384,483.3 384,448L384,154.5C384,137.5 377.3,121.2 365.3,109.2L274.7,18.7C262.7,6.7 246.5,0 229.5,0L64,0ZM120,256C106.7,256 96,266.7 96,280C96,293.3 106.7,304 120,304L264,304C277.3,304 288,293.3 288,280C288,266.7 277.3,256 264,256L120,256ZM120,352C106.7,352 96,362.7 96,376C96,389.3 106.7,400 120,400L264,400C277.3,400 288,389.3 288,376C288,362.7 277.3,352 264,352L120,352Z" style="fill:rgb(93,94,109);fill-rule:nonzero;"/>
</svg>
