<?xml version="1.0" encoding="UTF-8" standalone="no"?>
<!DOCTYPE svg PUBLIC "-//W3C//DTD SVG 1.1//EN" "http://www.w3.org/Graphics/SVG/1.1/DTD/svg11.dtd">
<svg width="100%" height="100%" viewBox="0 0 384 512" version="1.1" xmlns="http://www.w3.org/2000/svg" xmlns:xlink="http://www.w3.org/1999/xlink" xml:space="preserve" xmlns:serif="http://www.serif.com/" style="fill-rule:evenodd;clip-rule:evenodd;stroke-linejoin:round;stroke-miterlimit:2;">
    <path d="M272,384C281.6,352.1 301.5,324.9 321.2,297.8C326.4,290.7 331.6,283.6 336.6,276.4C356.4,247.9 368,213.4 368,176.1C368,78.8 289.2,0 192,0C94.8,0 16,78.8 16,176C16,213.3 27.6,247.9 47.4,276.3C52.4,283.5 57.6,290.6 62.8,297.7C82.6,324.8 102.5,352.1 112,383.9L272,383.9L272,384ZM192,512C236.2,512 272,476.2 272,432L272,416L112,416L112,432C112,476.2 147.8,512 192,512ZM112,176C112,184.8 104.8,192 96,192C87.2,192 80,184.8 80,176C80,114.1 130.1,64 192,64C200.8,64 208,71.2 208,80C208,88.8 200.8,96 192,96C147.8,96 112,131.8 112,176Z" style="fill:rgb(93,94,109);fill-rule:nonzero;"/>
</svg>
