<?xml version="1.0" encoding="UTF-8" standalone="no"?>
<!DOCTYPE svg PUBLIC "-//W3C//DTD SVG 1.1//EN" "http://www.w3.org/Graphics/SVG/1.1/DTD/svg11.dtd">
<svg width="100%" height="100%" viewBox="0 0 512 512" version="1.1" xmlns="http://www.w3.org/2000/svg" xmlns:xlink="http://www.w3.org/1999/xlink" xml:space="preserve" xmlns:serif="http://www.serif.com/" style="fill-rule:evenodd;clip-rule:evenodd;stroke-linejoin:round;stroke-miterlimit:2;">
    <path d="M64,64C64,46.3 49.7,32 32,32C14.3,32 0,46.3 0,64L0,400C0,444.2 35.8,480 80,480L480,480C497.7,480 512,465.7 512,448C512,430.3 497.7,416 480,416L80,416C71.2,416 64,408.8 64,400L64,64ZM470.6,150.6C483.1,138.1 483.1,117.8 470.6,105.3C458.1,92.8 437.8,92.8 425.3,105.3L320,210.7L262.6,153.3C250.1,140.8 229.8,140.8 217.3,153.3L105.3,265.3C92.8,277.8 92.8,298.1 105.3,310.6C117.8,323.1 138.1,323.1 150.6,310.6L240,221.3L297.4,278.7C309.9,291.2 330.2,291.2 342.7,278.7L470.7,150.7L470.6,150.6Z" style="fill:rgb(93,94,109);fill-rule:nonzero;"/>
</svg>
