<?xml version="1.0" encoding="UTF-8" standalone="no"?>
<!DOCTYPE svg PUBLIC "-//W3C//DTD SVG 1.1//EN" "http://www.w3.org/Graphics/SVG/1.1/DTD/svg11.dtd">
<svg width="100%" height="100%" viewBox="0 0 576 512" version="1.1" xmlns="http://www.w3.org/2000/svg" xmlns:xlink="http://www.w3.org/1999/xlink" xml:space="preserve" xmlns:serif="http://www.serif.com/" style="fill-rule:evenodd;clip-rule:evenodd;stroke-linejoin:round;stroke-miterlimit:2;">
    <path d="M0,128C0,92.7 28.7,64 64,64L320,64C355.3,64 384,92.7 384,128L384,384C384,419.3 355.3,448 320,448L64,448C28.7,448 0,419.3 0,384L0,128ZM559.1,99.8C569.5,105.4 576,116.2 576,128L576,384C576,395.8 569.5,406.6 559.1,412.2C548.7,417.8 536.1,417.2 526.2,410.6L430.2,346.6L416,337.1L416,174.9L430.2,165.4L526.2,101.4C536,94.9 548.6,94.2 559.1,99.8Z" style="fill:rgb(93,94,109);fill-rule:nonzero;"/>
</svg>
