<svg width="40" height="40" viewBox="0 0 40 40" fill="none" xmlns="http://www.w3.org/2000/svg">
<path fill-rule="evenodd" clip-rule="evenodd" d="M38.7224 27.049C39.5482 24.8567 40 22.4811 40 20C40 8.9543 31.0457 0 20 0C11.6998 0 4.58051 5.0562 1.55421 12.2566H10.8324C13.0337 9.65312 16.3238 7.99998 20.0001 7.99998C26.6057 7.99998 31.9647 13.3373 31.9999 19.9346H22.3722V18.9471L17.6703 23.4918L22.3722 28.0366V27.0491H38.6617L38.7224 27.049ZM38.4416 27.7534C35.4129 34.9485 28.2964 40 20 40C8.9543 40 0 31.0457 0 20C0 17.5226 0.450424 15.1505 1.27384 12.961H10.2804L10.2803 12.961H17.6177V11.9735L22.3195 16.5182L17.6177 21.063V20.0755H8.00031C8.04093 26.6682 13.3979 32 20.0001 32C23.6716 32 26.958 30.3511 29.1592 27.7534H38.4416Z" fill="#F0F0F0"/>
</svg>
