<svg width="100" height="100" viewBox="0 0 100 100" fill="none" xmlns="http://www.w3.org/2000/svg">
<rect width="100" height="100" rx="50" fill="#0554F2"/>
<path d="M22.9167 43.2812L46.5243 52.8906C47.6302 53.3371 48.8038 53.5714 50 53.5714C51.1962 53.5714 52.3698 53.3371 53.4757 52.8906L80.8299 41.7522C81.8455 41.3393 82.5 40.3683 82.5 39.2857C82.5 38.2031 81.8455 37.2321 80.8299 36.8192L53.4757 25.6808C52.3698 25.2344 51.1962 25 50 25C48.8038 25 47.6302 25.2344 46.5243 25.6808L19.1701 36.8192C18.1545 37.2321 17.5 38.2031 17.5 39.2857V72.3214C17.5 73.8058 18.7075 75 20.2083 75C21.7092 75 22.9167 73.8058 22.9167 72.3214V43.2812ZM28.3333 51.2835V64.2857C28.3333 70.2009 38.0382 75 50 75C61.9618 75 71.6667 70.2009 71.6667 64.2857V51.2723L55.5408 57.846C53.7804 58.5603 51.9071 58.9286 50 58.9286C48.0929 58.9286 46.2196 58.5603 44.4592 57.846L28.3333 51.2723V51.2835Z" fill="white"/>
</svg>
