<svg width="100" height="100" viewBox="0 0 100 100" fill="none" xmlns="http://www.w3.org/2000/svg">
<rect width="100" height="100" rx="10" fill="#505050"/>
<path d="M25 35H35V25H25V35ZM15 22.5C15 18.3594 18.3594 15 22.5 15H37.5C41.6406 15 45 18.3594 45 22.5V37.5C45 41.6406 41.6406 45 37.5 45H22.5C18.3594 45 15 41.6406 15 37.5V22.5ZM25 75H35V65H25V75ZM15 62.5C15 58.3594 18.3594 55 22.5 55H37.5C41.6406 55 45 58.3594 45 62.5V77.5C45 81.6406 41.6406 85 37.5 85H22.5C18.3594 85 15 81.6406 15 77.5V62.5ZM65 25V35H75V25H65ZM62.5 15H77.5C81.6406 15 85 18.3594 85 22.5V37.5C85 41.6406 81.6406 45 77.5 45H62.5C58.3594 45 55 41.6406 55 37.5V22.5C55 18.3594 58.3594 15 62.5 15ZM60 65C57.2344 65 55 62.7656 55 60C55 57.2344 57.2344 55 60 55C62.7656 55 65 57.2344 65 60C65 62.7656 62.7656 65 60 65ZM60 75C62.7656 75 65 77.2344 65 80C65 82.7656 62.7656 85 60 85C57.2344 85 55 82.7656 55 80C55 77.2344 57.2344 75 60 75ZM75 80C75 77.2344 77.2344 75 80 75C82.7656 75 85 77.2344 85 80C85 82.7656 82.7656 85 80 85C77.2344 85 75 82.7656 75 80ZM80 65C77.2344 65 75 62.7656 75 60C75 57.2344 77.2344 55 80 55C82.7656 55 85 57.2344 85 60C85 62.7656 82.7656 65 80 65ZM75 70C75 72.7656 72.7656 75 70 75C67.2344 75 65 72.7656 65 70C65 67.2344 67.2344 65 70 65C72.7656 65 75 67.2344 75 70Z" fill="white"/>
</svg>
