<svg width="100" height="100" viewBox="0 0 100 100" fill="none" xmlns="http://www.w3.org/2000/svg">
<rect width="100" height="100" rx="50" fill="#0554F2"/>
<path d="M55.3642 27.8472C55.3642 24.8967 52.962 22.5 50.0048 22.5C47.0476 22.5 44.6454 24.8967 44.6454 27.8472C44.6454 30.7977 47.0476 33.1944 50.0048 33.1944C52.962 33.1944 55.3642 30.7977 55.3642 27.8472ZM57.661 48.1571L62.0921 54.1155C63.097 55.4714 65.0206 55.7578 66.3796 54.7457C67.7386 53.7335 68.0257 51.8238 67.0112 50.4679L60.2642 41.3967C57.8524 38.1597 54.053 36.25 50.0048 36.25C45.9565 36.25 42.1571 38.1597 39.7454 41.3967L32.9983 50.4679C31.9935 51.8238 32.271 53.7335 33.63 54.7457C34.989 55.7578 36.903 55.4714 37.9175 54.1155L42.3485 48.1571V74.4444C42.3485 76.1345 43.7171 77.5 45.411 77.5C47.105 77.5 48.4735 76.1345 48.4735 74.4444V59.1667C48.4735 58.3264 49.1626 57.6389 50.0048 57.6389C50.847 57.6389 51.536 58.3264 51.536 59.1667V74.4444C51.536 76.1345 52.9046 77.5 54.5985 77.5C56.2925 77.5 57.661 76.1345 57.661 74.4444V48.1571ZM26.1747 26.224C25.2751 27.1215 25.2751 28.5729 26.1747 29.4609L33.831 37.0998C34.7306 37.9974 36.1853 37.9974 37.0753 37.0998C37.9653 36.2023 37.9749 34.7509 37.0753 33.8628L29.4286 26.224C28.529 25.3359 27.0743 25.3359 26.1747 26.224ZM70.581 26.224L62.9247 33.8628C62.0251 34.7604 62.0251 36.2118 62.9247 37.0998C63.8243 37.9878 65.279 37.9974 66.169 37.0998L73.8253 29.4609C74.7249 28.5634 74.7249 27.112 73.8253 26.224C72.9257 25.3359 71.471 25.3264 70.581 26.224ZM26.1747 73.776C27.0743 74.6736 28.529 74.6736 29.419 73.776L37.0753 66.1372C37.9749 65.2396 37.9749 63.7882 37.0753 62.9002C36.1757 62.0122 34.721 62.0026 33.831 62.9002L26.1747 70.5391C25.2751 71.4366 25.2751 72.888 26.1747 73.776ZM70.581 73.776C71.4806 74.6736 72.9353 74.6736 73.8253 73.776C74.7153 72.8785 74.7249 71.4271 73.8253 70.5391L66.169 62.9002C65.2694 62.0026 63.8147 62.0026 62.9247 62.9002C62.0347 63.7977 62.0251 65.2491 62.9247 66.1372L70.581 73.776Z" fill="white"/>
</svg>
