<svg width="100" height="100" viewBox="0 0 100 100" fill="none" xmlns="http://www.w3.org/2000/svg">
<rect width="100" height="100" rx="50" fill="#0554F2"/>
<path d="M51.5641 22.8743C50.5797 22.3752 49.4203 22.3752 48.4359 22.8743L20.4344 37.0685C18.7061 37.9446 18.0061 40.0737 18.8702 41.8258C19.7343 43.5779 21.8344 44.2876 23.5627 43.4116L50 30.0158L76.4374 43.4116C78.1656 44.2876 80.2657 43.5779 81.1298 41.8258C81.9939 40.0737 81.2939 37.9446 79.5656 37.0685L51.5641 22.8743ZM50 54.4343C53.3799 54.4343 56.1253 51.6509 56.1253 48.2243C56.1253 44.7977 53.3799 42.0143 50 42.0143C46.6201 42.0143 43.8747 44.7977 43.8747 48.2243C43.8747 51.6509 46.6201 54.4343 50 54.4343ZM50 59.7572C44.2028 59.7572 39.4994 64.5256 39.4994 70.4029V73.9514C39.4994 75.9142 41.0636 77.5 42.9996 77.5H57.0004C58.9364 77.5 60.5006 75.9142 60.5006 73.9514V70.4029C60.5006 64.5256 55.7972 59.7572 50 59.7572ZM35.9993 52.66C35.9993 49.7214 33.6476 47.3372 30.749 47.3372C27.8504 47.3372 25.4987 49.7214 25.4987 52.66C25.4987 55.5987 27.8504 57.9829 30.749 57.9829C33.6476 57.9829 35.9993 55.5987 35.9993 52.66ZM74.5013 52.66C74.5013 49.7214 72.1496 47.3372 69.251 47.3372C66.3524 47.3372 64.0007 49.7214 64.0007 52.66C64.0007 55.5987 66.3524 57.9829 69.251 57.9829C72.1496 57.9829 74.5013 55.5987 74.5013 52.66ZM30.749 61.5315C25.9143 61.5315 21.9985 65.5014 21.9985 70.4029V74.0734C21.9985 75.9586 23.508 77.5 25.3784 77.5H34.982C34.5117 76.4132 34.2492 75.2156 34.2492 73.9514V68.6286C34.2492 66.5882 34.632 64.6364 35.3211 62.84C33.9866 62.0083 32.4225 61.5315 30.749 61.5315ZM65.0289 77.5H74.6326C76.492 77.5 78.0124 75.9697 78.0124 74.0734V70.4029C78.0124 65.5014 74.0966 61.5315 69.262 61.5315C67.5884 61.5315 66.0243 62.0083 64.6898 62.84C65.3789 64.6364 65.7618 66.5882 65.7618 68.6286V73.9514C65.7618 75.2156 65.4993 76.4132 65.0289 77.5Z" fill="white"/>
</svg>
