<svg width="90" height="90" viewBox="0 0 90 90" fill="none" xmlns="http://www.w3.org/2000/svg">
<path d="M20 30H30V20H20V30ZM10 17.5C10 13.3594 13.3594 10 17.5 10H32.5C36.6406 10 40 13.3594 40 17.5V32.5C40 36.6406 36.6406 40 32.5 40H17.5C13.3594 40 10 36.6406 10 32.5V17.5ZM20 70H30V60H20V70ZM10 57.5C10 53.3594 13.3594 50 17.5 50H32.5C36.6406 50 40 53.3594 40 57.5V72.5C40 76.6406 36.6406 80 32.5 80H17.5C13.3594 80 10 76.6406 10 72.5V57.5ZM60 20V30H70V20H60ZM57.5 10H72.5C76.6406 10 80 13.3594 80 17.5V32.5C80 36.6406 76.6406 40 72.5 40H57.5C53.3594 40 50 36.6406 50 32.5V17.5C50 13.3594 53.3594 10 57.5 10ZM55 60C52.2344 60 50 57.7656 50 55C50 52.2344 52.2344 50 55 50C57.7656 50 60 52.2344 60 55C60 57.7656 57.7656 60 55 60ZM55 70C57.7656 70 60 72.2344 60 75C60 77.7656 57.7656 80 55 80C52.2344 80 50 77.7656 50 75C50 72.2344 52.2344 70 55 70ZM70 75C70 72.2344 72.2344 70 75 70C77.7656 70 80 72.2344 80 75C80 77.7656 77.7656 80 75 80C72.2344 80 70 77.7656 70 75ZM75 60C72.2344 60 70 57.7656 70 55C70 52.2344 72.2344 50 75 50C77.7656 50 80 52.2344 80 55C80 57.7656 77.7656 60 75 60ZM70 65C70 67.7656 67.7656 70 65 70C62.2344 70 60 67.7656 60 65C60 62.2344 62.2344 60 65 60C67.7656 60 70 62.2344 70 65Z" fill="white"/>
</svg>
