<svg width="100" height="100" viewBox="0 0 100 100" fill="none" xmlns="http://www.w3.org/2000/svg">
<rect width="100" height="100" rx="50" fill="#0554F2"/>
<path d="M30.0263 29.8333C30.0263 25.7885 33.2834 22.5 37.2895 22.5H77.2368C81.2429 22.5 84.5 25.7885 84.5 29.8333V57.3333H73.6053V55.5C73.6053 53.4719 71.9824 51.8333 69.9737 51.8333H62.7105C60.7018 51.8333 59.0789 53.4719 59.0789 55.5V57.3333H44.4278C45.6648 55.1792 46.3684 52.6698 46.3684 50C46.3684 41.899 39.8656 35.3333 31.8421 35.3333C31.2293 35.3333 30.6164 35.3677 30.0263 35.4479V29.8333ZM53.2911 70.1667C52.7123 67.3937 51.4413 64.8844 49.6482 62.8333H84.5C84.5 66.8781 81.2429 70.1667 77.2368 70.1667H53.2911ZM22.7632 50C22.7632 44.9354 26.826 40.8333 31.8421 40.8333C36.8582 40.8333 40.9211 44.9354 40.9211 50C40.9211 55.0646 36.8582 59.1667 31.8421 59.1667C26.826 59.1667 22.7632 55.0646 22.7632 50ZM15.5 73.8333C15.5 67.7604 20.3799 62.8333 26.3947 62.8333H37.2895C43.3043 62.8333 48.1842 67.7604 48.1842 73.8333C48.1842 75.8615 46.5613 77.5 44.5526 77.5H19.1316C17.1229 77.5 15.5 75.8615 15.5 73.8333Z" fill="white"/>
</svg>
