<svg width="30" height="38" viewBox="0 0 30 38" fill="none" xmlns="http://www.w3.org/2000/svg">
<path d="M15 0C11.7344 0 8.95312 1.98164 7.92969 4.75H5C2.24219 4.75 0 6.88008 0 9.5V33.25C0 35.8699 2.24219 38 5 38H25C27.7578 38 30 35.8699 30 33.25V9.5C30 6.88008 27.7578 4.75 25 4.75H22.0703C21.0469 1.98164 18.2656 0 15 0ZM15 4.75C15.663 4.75 16.2989 5.00022 16.7678 5.44562C17.2366 5.89102 17.5 6.49511 17.5 7.125C17.5 7.75489 17.2366 8.35898 16.7678 8.80438C16.2989 9.24978 15.663 9.5 15 9.5C14.337 9.5 13.7011 9.24978 13.2322 8.80438C12.7634 8.35898 12.5 7.75489 12.5 7.125C12.5 6.49511 12.7634 5.89102 13.2322 5.44562C13.7011 5.00022 14.337 4.75 15 4.75ZM8.75 14.25H21.25C21.9375 14.25 22.5 14.7844 22.5 15.4375C22.5 16.0906 21.9375 16.625 21.25 16.625H8.75C8.0625 16.625 7.5 16.0906 7.5 15.4375C7.5 14.7844 8.0625 14.25 8.75 14.25Z" fill="white"/>
</svg>
