<svg width="23" height="22" viewBox="0 0 23 22" fill="none" xmlns="http://www.w3.org/2000/svg">
<path d="M11.9143 0C5.85511 0 0.944336 4.91078 0.944336 10.97C0.944336 17.0292 5.85511 21.9399 11.9143 21.9399C17.9735 21.9399 22.8843 17.0292 22.8843 10.97C22.8843 4.91078 17.9735 0 11.9143 0ZM8.84615 15.5594H6.70786V8.71599H8.84615V15.5594ZM7.71915 7.85896H7.70201C6.9264 7.85896 6.42504 7.33617 6.42504 6.67197C6.42504 5.99492 6.94354 5.48499 7.73201 5.48499C8.52047 5.48499 9.0047 5.99492 9.02184 6.67197C9.02612 7.33189 8.52476 7.85896 7.71915 7.85896ZM17.3993 15.5594H14.9739V12.0198C14.9739 11.0942 14.5968 10.46 13.7612 10.46C13.1227 10.46 12.7671 10.8886 12.6042 11.2999C12.5442 11.4456 12.5528 11.6513 12.5528 11.8613V15.5594H10.1488C10.1488 15.5594 10.1788 9.28591 10.1488 8.71599H12.5528V9.79156C12.6942 9.32019 13.4612 8.65171 14.6868 8.65171C16.208 8.65171 17.3993 9.63729 17.3993 11.7542V15.5594Z" fill="white"/>
</svg>
