<svg width="23" height="22" viewBox="0 0 23 22" fill="none" xmlns="http://www.w3.org/2000/svg">
<path d="M14.7803 5.32812H8.83687C7.34844 5.32812 6.13672 6.53984 6.13672 8.02828V13.9717C6.13672 15.4602 7.34844 16.6719 8.83687 16.6719H14.7803C16.2688 16.6719 17.4805 15.4602 17.4805 13.9717V8.02828C17.4805 6.53984 16.2688 5.32812 14.7803 5.32812ZM11.8086 14.532C9.86125 14.532 8.27656 12.9473 8.27656 11C8.27656 9.05266 9.86125 7.46797 11.8086 7.46797C13.7559 7.46797 15.3406 9.05266 15.3406 11C15.3406 12.9473 13.7559 14.532 11.8086 14.532ZM15.4369 8.18984C14.9814 8.18984 14.6119 7.82031 14.6119 7.36398C14.6119 6.90852 14.9814 6.53898 15.4369 6.53898C15.8932 6.53898 16.2627 6.90852 16.2627 7.36398C16.2627 7.82031 15.8932 8.18984 15.4369 8.18984ZM11.8086 8.67109C10.5247 8.67109 9.47969 9.71609 9.47969 11C9.47969 12.2839 10.5247 13.3289 11.8086 13.3289C13.0925 13.3289 14.1375 12.2839 14.1375 11C14.1375 9.71609 13.0925 8.67109 11.8086 8.67109ZM11.8086 0C5.73367 0 0.808594 4.92508 0.808594 11C0.808594 17.0749 5.73367 22 11.8086 22C17.8835 22 22.8086 17.0749 22.8086 11C22.8086 4.92508 17.8835 0 11.8086 0ZM18.6836 13.9717C18.6836 16.1236 16.9322 17.875 14.7803 17.875H8.83687C6.685 17.875 4.93359 16.1236 4.93359 13.9717V8.02828C4.93359 5.87641 6.685 4.125 8.83687 4.125H14.7803C16.9322 4.125 18.6836 5.87641 18.6836 8.02828V13.9717Z" fill="white"/>
</svg>
