<svg width="23" height="22" viewBox="0 0 23 22" fill="none" xmlns="http://www.w3.org/2000/svg">
<path d="M9.62329 13.1189L13.2241 11.0048L9.62329 8.89075V13.1189Z" fill="white"/>
<path d="M11.0889 0C5.01309 0 0.0888672 4.92422 0.0888672 11C0.0888672 17.0758 5.01309 22 11.0889 22C17.1646 22 22.0889 17.0758 22.0889 11C22.0889 4.92422 17.1646 0 11.0889 0ZM16.5889 12.968C16.5889 14.8629 14.6939 14.8629 14.6939 14.8629H7.48379C5.58887 14.8629 5.58887 12.968 5.58887 12.968V9.03633C5.58887 7.14141 7.48379 7.14141 7.48379 7.14141H14.6939C16.5889 7.14141 16.5889 9.03633 16.5889 9.03633V12.968Z" fill="white"/>
</svg>
