<svg width="19" height="18" viewBox="0 0 19 18" fill="none" xmlns="http://www.w3.org/2000/svg">
<path d="M9.22763 0.0369949C9.14507 0.0698948 8.86433 0.152142 8.61662 0.20149C8.3524 0.267288 8.15424 0.398886 8.15424 0.514032C8.15424 0.645628 8.03864 1.12267 7.90653 1.58325C7.55974 2.70182 7.17993 2.81697 6.05699 2.12609C5.59461 1.84645 5.11571 1.61615 4.96708 1.61615C4.63681 1.61615 3.08451 3.01436 2.78727 3.5901C2.57259 4.01779 2.5891 4.10003 3.10103 4.95541C3.84415 6.18912 3.69552 6.51812 2.24231 6.84711C1.03681 7.1103 0.888184 7.32414 0.888184 8.75525C0.888184 9.98897 1.05332 10.6469 1.36708 10.7292C1.51571 10.7621 1.99461 10.8937 2.42396 10.9924C3.61295 11.3049 3.71204 11.6833 2.9524 12.8841C2.39094 13.7395 2.35791 13.8546 2.55607 14.2329C2.85332 14.7922 4.48818 16.2562 4.80195 16.2562C4.95057 16.2562 5.42947 16.0259 5.89185 15.7463C6.99828 15.0719 7.37809 15.2199 7.67534 16.4865C7.93956 17.6709 7.9891 17.7367 8.81479 17.9176C9.50837 18.0821 11.0607 17.9834 11.4075 17.7696C11.5065 17.7038 11.6882 17.2103 11.8203 16.6675C12.1671 15.3022 12.5469 15.1706 13.8019 15.9766C14.7102 16.5523 14.7267 16.5523 15.1891 16.2727C15.7175 15.9602 17.2368 14.3316 17.2368 14.1014C17.2368 14.0191 17.0056 13.575 16.7084 13.1144C16.2955 12.4235 16.2295 12.1932 16.3451 11.8478C16.4772 11.5023 16.6588 11.3872 17.5341 11.1898C18.7396 10.9266 18.8882 10.7127 18.8882 9.28164C18.8882 7.55444 18.8221 7.43929 17.6166 7.1103C16.1634 6.71551 16.0808 6.48522 16.824 5.20215C17.3689 4.29743 17.4019 4.14938 17.2038 3.78749C16.9396 3.27756 15.2882 1.78065 15.0075 1.78065C14.8753 1.78065 14.3799 2.01094 13.9175 2.29058C12.7451 2.98146 12.3818 2.81697 12.101 1.50101C12.0019 0.974619 11.8203 0.464684 11.7212 0.349537C11.5396 0.152142 9.55791 -0.0946007 9.22763 0.0369949ZM11.2093 6.04108C12.1506 6.46877 12.7946 7.22545 13.0423 8.17952C13.4552 9.77512 12.712 11.3049 11.2093 11.9958C9.07901 12.9828 6.668 11.4036 6.668 9.01845C6.668 6.63326 9.07901 5.05411 11.2093 6.04108Z" fill="#5B6B96"/>
</svg>
