<svg width="114" height="100" viewBox="0 0 114 100" fill="none" xmlns="http://www.w3.org/2000/svg">
<path d="M0 14.2857C0 6.40625 6.39023 0 14.25 0H99.75C107.61 0 114 6.40625 114 14.2857V85.7143C114 93.5938 107.61 100 99.75 100H14.25C6.39023 100 0 93.5938 0 85.7143V14.2857ZM10.6875 75V82.1429C10.6875 84.1071 12.2906 85.7143 14.25 85.7143H21.375C23.3344 85.7143 24.9375 84.1071 24.9375 82.1429V75C24.9375 73.0357 23.3344 71.4286 21.375 71.4286H14.25C12.2906 71.4286 10.6875 73.0357 10.6875 75ZM92.625 71.4286C90.6656 71.4286 89.0625 73.0357 89.0625 75V82.1429C89.0625 84.1071 90.6656 85.7143 92.625 85.7143H99.75C101.709 85.7143 103.312 84.1071 103.312 82.1429V75C103.312 73.0357 101.709 71.4286 99.75 71.4286H92.625ZM10.6875 46.4286V53.5714C10.6875 55.5357 12.2906 57.1429 14.25 57.1429H21.375C23.3344 57.1429 24.9375 55.5357 24.9375 53.5714V46.4286C24.9375 44.4643 23.3344 42.8571 21.375 42.8571H14.25C12.2906 42.8571 10.6875 44.4643 10.6875 46.4286ZM92.625 42.8571C90.6656 42.8571 89.0625 44.4643 89.0625 46.4286V53.5714C89.0625 55.5357 90.6656 57.1429 92.625 57.1429H99.75C101.709 57.1429 103.312 55.5357 103.312 53.5714V46.4286C103.312 44.4643 101.709 42.8571 99.75 42.8571H92.625ZM10.6875 17.8571V25C10.6875 26.9643 12.2906 28.5714 14.25 28.5714H21.375C23.3344 28.5714 24.9375 26.9643 24.9375 25V17.8571C24.9375 15.8929 23.3344 14.2857 21.375 14.2857H14.25C12.2906 14.2857 10.6875 15.8929 10.6875 17.8571ZM92.625 14.2857C90.6656 14.2857 89.0625 15.8929 89.0625 17.8571V25C89.0625 26.9643 90.6656 28.5714 92.625 28.5714H99.75C101.709 28.5714 103.312 26.9643 103.312 25V17.8571C103.312 15.8929 101.709 14.2857 99.75 14.2857H92.625ZM35.625 21.4286V35.7143C35.625 39.6652 38.809 42.8571 42.75 42.8571H71.25C75.191 42.8571 78.375 39.6652 78.375 35.7143V21.4286C78.375 17.4777 75.191 14.2857 71.25 14.2857H42.75C38.809 14.2857 35.625 17.4777 35.625 21.4286ZM42.75 57.1429C38.809 57.1429 35.625 60.3348 35.625 64.2857V78.5714C35.625 82.5223 38.809 85.7143 42.75 85.7143H71.25C75.191 85.7143 78.375 82.5223 78.375 78.5714V64.2857C78.375 60.3348 75.191 57.1429 71.25 57.1429H42.75Z" fill="#525252"/>
</svg>
