<svg width="38" height="39" viewBox="0 0 38 39" fill="none" xmlns="http://www.w3.org/2000/svg">
<path d="M32.2383 6.19289C28.703 2.64914 23.9949 0.700073 18.9914 0.700073C8.66392 0.700073 0.260166 9.10382 0.260166 19.4313C0.260166 22.7304 1.12079 25.9535 2.75767 28.797L0.0998535 38.5001L10.0308 35.8929C12.7645 37.3863 15.8442 38.171 18.983 38.171H18.9914C29.3105 38.171 37.8999 29.7673 37.8999 19.4398C37.8999 14.4363 35.7736 9.73664 32.2383 6.19289ZM18.9914 35.0154C16.1902 35.0154 13.448 34.2645 11.0602 32.847L10.4949 32.5095L4.60548 34.0535L6.17485 28.3076L5.8036 27.717C4.24267 25.2363 3.42423 22.376 3.42423 19.4313C3.42423 10.8504 10.4105 3.86414 18.9999 3.86414C23.1595 3.86414 27.0661 5.48414 30.0024 8.42882C32.9386 11.3735 34.7442 15.2801 34.7358 19.4398C34.7358 28.0291 27.5724 35.0154 18.9914 35.0154ZM27.5302 23.3548C27.0661 23.1185 24.7627 21.9879 24.3324 21.836C23.902 21.6757 23.5899 21.5998 23.2777 22.0723C22.9655 22.5448 22.0711 23.591 21.7927 23.9116C21.5227 24.2238 21.2442 24.266 20.7802 24.0298C18.0295 22.6545 16.2239 21.5745 14.4099 18.461C13.9289 17.6341 14.8908 17.6932 15.7852 15.9044C15.937 15.5923 15.8611 15.3223 15.743 15.086C15.6249 14.8498 14.6883 12.5463 14.3002 11.6098C13.9205 10.6985 13.5324 10.8251 13.2455 10.8082C12.9755 10.7913 12.6633 10.7913 12.3511 10.7913C12.0389 10.7913 11.5327 10.9094 11.1024 11.3735C10.672 11.846 9.46548 12.9766 9.46548 15.2801C9.46548 17.5835 11.1445 19.811 11.3724 20.1232C11.6086 20.4354 14.6714 25.1604 19.3711 27.1938C22.3411 28.4763 23.5055 28.586 24.9905 28.3666C25.8933 28.2316 27.758 27.236 28.1461 26.1391C28.5342 25.0423 28.5342 24.1057 28.4161 23.9116C28.3064 23.7007 27.9942 23.5826 27.5302 23.3548Z" fill="white"/>
</svg>
