<svg width="254" height="130" viewBox="0 0 254 130" fill="none" xmlns="http://www.w3.org/2000/svg">
<g clip-path="url(#clip0_1471_2)">
<path d="M127 0.498047C116.2 0.498047 108.77 7.58081 101.6 17.7616V130H152.4V17.7616C145.23 7.58081 137.8 0.498047 127 0.498047Z" fill="url(#paint0_linear_1471_2)"/>
<path d="M0 90.1533V130H101.6V17.7617C83.27 43.8115 66.68 90.1533 0 90.1533Z" fill="url(#paint1_linear_1471_2)"/>
<path d="M254 90.1533C187.31 90.1533 170.73 43.8115 152.4 17.7617V130H254V90.1533Z" fill="url(#paint2_linear_1471_2)"/>
<path d="M254 90.1532C161.25 90.1532 165.43 0.498047 127 0.498047C88.57 0.498047 92.75 90.1532 0 90.1532" stroke="#231F20" stroke-miterlimit="10"/>
</g>
<defs>
<linearGradient id="paint0_linear_1471_2" x1="101.6" y1="65.249" x2="152.4" y2="65.249" gradientUnits="userSpaceOnUse">
<stop stop-color="#00B833"/>
<stop offset="1" stop-color="#49E43B"/>
</linearGradient>
<linearGradient id="paint1_linear_1471_2" x1="0" y1="73.8859" x2="101.6" y2="73.8859" gradientUnits="userSpaceOnUse">
<stop stop-color="#FF0000"/>
<stop offset="1" stop-color="#FAFF00"/>
</linearGradient>
<linearGradient id="paint2_linear_1471_2" x1="152.4" y1="73.8759" x2="254" y2="73.8759" gradientUnits="userSpaceOnUse">
<stop stop-color="#00E9FF"/>
<stop offset="1" stop-color="#284093"/>
</linearGradient>
<clipPath id="clip0_1471_2">
<rect width="254" height="130" fill="white"/>
</clipPath>
</defs>
</svg>
