<svg width="254" height="130" viewBox="0 0 254 130" fill="none" xmlns="http://www.w3.org/2000/svg">
<g clip-path="url(#clip0_1471_8)">
<path d="M254 90.1532C214.79 90.1532 192.9 74.1348 177.8 55.636V130H254V90.1532Z" fill="url(#paint0_linear_1471_8)"/>
<path d="M0 90.1533V130H101.6V17.7617C83.27 43.8115 66.68 90.1533 0 90.1533Z" fill="url(#paint1_linear_1471_8)"/>
<path d="M127 0.498047C116.2 0.498047 108.77 7.58081 101.6 17.7616V130H177.8V55.636C157.17 30.3731 149.18 0.498047 127 0.498047Z" fill="url(#paint2_linear_1471_8)"/>
<path d="M254 90.1532C161.25 90.1532 165.43 0.498047 127 0.498047C88.57 0.498047 92.75 90.1532 0 90.1532" stroke="#231F20" stroke-miterlimit="10"/>
</g>
<defs>
<linearGradient id="paint0_linear_1471_8" x1="177.8" y1="92.813" x2="254" y2="92.813" gradientUnits="userSpaceOnUse">
<stop stop-color="#00E9FF"/>
<stop offset="1" stop-color="#284093"/>
</linearGradient>
<linearGradient id="paint1_linear_1471_8" x1="0" y1="73.8859" x2="101.6" y2="73.8859" gradientUnits="userSpaceOnUse">
<stop stop-color="#FF0000"/>
<stop offset="1" stop-color="#FAFF00"/>
</linearGradient>
<linearGradient id="paint2_linear_1471_8" x1="101.6" y1="65.249" x2="177.8" y2="65.249" gradientUnits="userSpaceOnUse">
<stop stop-color="#00B833"/>
<stop offset="1" stop-color="#49E43B"/>
</linearGradient>
<clipPath id="clip0_1471_8">
<rect width="254" height="130" fill="white"/>
</clipPath>
</defs>
</svg>
