<?xml version="1.0" encoding="utf-8"?>
<!-- Generator: Adobe Illustrator 27.8.0, SVG Export Plug-In . SVG Version: 6.00 Build 0)  -->
<svg version="1.1" id="Capa_1" xmlns="http://www.w3.org/2000/svg" xmlns:xlink="http://www.w3.org/1999/xlink" x="0px" y="0px"
	 viewBox="0 0 1080 386.49" style="enable-background:new 0 0 1080 386.49;" xml:space="preserve">
<style type="text/css">
	.st0{display:none;fill:#0528F2;}
	.st1{font-family:'Ibrand-Regular';}
	.st2{font-size:62.324px;}
	.st3{display:none;}
	.st4{display:inline;fill:#050259;}
	.st5{display:inline;fill-rule:evenodd;clip-rule:evenodd;fill:#0528F2;}
	.st6{display:inline;fill-rule:evenodd;clip-rule:evenodd;fill:#BD0A7D;}
	.st7{fill:#00236E;}
	.st8{fill:#F24405;}
</style>
<text transform="matrix(1.0571 0 0 1 702.6919 405.5718)" class="st0 st1 st2">Goldmind</text>
<g id="Education_Intelligence_00000165195950111667497030000007400295925224173966_" class="st3">
	<path class="st4" d="M785.05,411.86v2.87h3.08v0.64h-3.08v2.91h3.43v0.64h-4.24v-7.7h4.24v0.64H785.05z"/>
	<path class="st4" d="M794.8,411.69c0.64,0.31,1.14,0.75,1.48,1.33s0.51,1.27,0.51,2.07c0,0.79-0.17,1.48-0.51,2.05
		c-0.34,0.58-0.83,1.02-1.48,1.32c-0.64,0.31-1.41,0.46-2.31,0.46h-2.41v-7.69h2.41C793.39,411.23,794.16,411.38,794.8,411.69z
		 M795.07,417.44c0.59-0.56,0.89-1.34,0.89-2.35c0-1.01-0.3-1.8-0.89-2.37c-0.59-0.57-1.45-0.85-2.59-0.85h-1.59v6.41h1.59
		C793.62,418.28,794.48,418,795.07,417.44z"/>
	<path class="st4" d="M799.07,411.23v4.84c0,0.76,0.19,1.33,0.58,1.69c0.38,0.37,0.91,0.55,1.58,0.55c0.67,0,1.19-0.18,1.56-0.54
		c0.38-0.36,0.56-0.93,0.56-1.7v-4.84h0.81v4.83c0,0.98-0.27,1.71-0.82,2.2c-0.55,0.49-1.26,0.74-2.13,0.74
		c-0.88,0-1.59-0.25-2.13-0.74c-0.55-0.49-0.82-1.22-0.82-2.2v-4.83H799.07z"/>
	<path class="st4" d="M806.12,413.04c0.35-0.6,0.83-1.06,1.43-1.4c0.6-0.33,1.28-0.5,2.02-0.5c0.91,0,1.68,0.2,2.33,0.61
		s1.12,0.98,1.41,1.72h-0.95c-0.23-0.52-0.59-0.93-1.06-1.22c-0.48-0.29-1.05-0.44-1.73-0.44c-0.6,0-1.13,0.13-1.61,0.4
		c-0.48,0.26-0.85,0.64-1.12,1.14c-0.27,0.5-0.41,1.07-0.41,1.72c0,0.65,0.14,1.23,0.41,1.72c0.27,0.49,0.65,0.87,1.12,1.13
		c0.48,0.26,1.01,0.4,1.61,0.4c0.67,0,1.25-0.14,1.73-0.43c0.48-0.29,0.83-0.69,1.06-1.2h0.95c-0.29,0.73-0.77,1.3-1.42,1.7
		c-0.65,0.4-1.43,0.61-2.33,0.61c-0.74,0-1.42-0.17-2.02-0.5c-0.6-0.33-1.08-0.8-1.43-1.39c-0.35-0.59-0.52-1.27-0.52-2.02
		C805.6,414.31,805.78,413.64,806.12,413.04z"/>
	<path class="st4" d="M819.65,417.09h-3.7l-0.71,1.83h-0.86l2.96-7.59h0.92l2.95,7.59h-0.86L819.65,417.09z M819.4,416.45l-1.6-4.16
		l-1.6,4.16H819.4z"/>
	<path class="st4" d="M827.27,411.23v0.64h-2.26v7.05h-0.81v-7.05h-2.27v-0.64H827.27z"/>
	<path class="st4" d="M829.38,411.23v7.69h-0.81v-7.69H829.38z"/>
	<path class="st4" d="M832.83,418.49c-0.61-0.33-1.1-0.8-1.45-1.4c-0.35-0.6-0.53-1.27-0.53-2.03c0-0.75,0.18-1.43,0.53-2.03
		c0.35-0.6,0.83-1.06,1.45-1.4c0.61-0.33,1.29-0.5,2.05-0.5c0.76,0,1.45,0.17,2.06,0.5s1.09,0.8,1.44,1.4
		c0.35,0.6,0.52,1.27,0.52,2.03c0,0.76-0.17,1.43-0.52,2.03c-0.35,0.6-0.83,1.06-1.44,1.4s-1.3,0.5-2.06,0.5
		C834.12,418.99,833.44,418.83,832.83,418.49z M836.5,417.93c0.48-0.26,0.86-0.64,1.14-1.14c0.28-0.5,0.42-1.07,0.42-1.72
		c0-0.65-0.14-1.22-0.42-1.72s-0.66-0.87-1.14-1.13c-0.48-0.26-1.02-0.4-1.63-0.4s-1.15,0.13-1.63,0.4
		c-0.48,0.26-0.86,0.64-1.14,1.13c-0.28,0.49-0.42,1.06-0.42,1.72c0,0.65,0.14,1.23,0.42,1.72c0.28,0.49,0.66,0.87,1.14,1.14
		c0.48,0.26,1.02,0.4,1.63,0.4S836.02,418.19,836.5,417.93z"/>
	<path class="st4" d="M846.51,418.92h-0.81l-4.5-6.47v6.47h-0.81v-7.69h0.81l4.5,6.46v-6.46h0.81V418.92z"/>
	<path class="st4" d="M852.36,411.23v7.69h-0.81v-7.69H852.36z"/>
	<path class="st4" d="M860.34,418.92h-0.81l-4.5-6.47v6.47h-0.81v-7.69h0.81l4.5,6.46v-6.46h0.81V418.92z"/>
	<path class="st4" d="M866.94,411.23v0.64h-2.26v7.05h-0.81v-7.05h-2.27v-0.64H866.94z"/>
	<path class="st4" d="M869.04,411.86v2.87h3.08v0.64h-3.08v2.91h3.43v0.64h-4.24v-7.7h4.24v0.64H869.04z"/>
	<path class="st4" d="M874.89,418.29h2.92v0.63h-3.73v-7.69h0.81V418.29z"/>
	<path class="st4" d="M879.78,418.29h2.92v0.63h-3.73v-7.69h0.81V418.29z"/>
	<path class="st4" d="M884.68,411.23v7.69h-0.81v-7.69H884.68z"/>
	<path class="st4" d="M892.92,413.47c-0.23-0.51-0.59-0.9-1.06-1.19c-0.48-0.29-1.04-0.43-1.68-0.43c-0.6,0-1.15,0.13-1.63,0.4
		c-0.48,0.26-0.86,0.64-1.14,1.13c-0.28,0.49-0.42,1.05-0.42,1.7c0,0.65,0.14,1.21,0.42,1.7c0.28,0.49,0.66,0.87,1.14,1.13
		c0.48,0.26,1.02,0.4,1.63,0.4c0.57,0,1.08-0.12,1.53-0.35c0.45-0.23,0.82-0.56,1.09-0.99s0.43-0.93,0.47-1.5h-3.42v-0.63h4.28v0.56
		c-0.04,0.68-0.23,1.29-0.58,1.83c-0.35,0.55-0.82,0.98-1.4,1.29c-0.59,0.31-1.24,0.47-1.97,0.47c-0.75,0-1.43-0.17-2.05-0.5
		c-0.61-0.33-1.1-0.8-1.45-1.4c-0.35-0.6-0.53-1.27-0.53-2.03c0-0.75,0.18-1.43,0.53-2.03c0.35-0.6,0.83-1.06,1.45-1.4
		c0.61-0.33,1.29-0.5,2.05-0.5c0.87,0,1.63,0.21,2.28,0.62c0.65,0.41,1.12,0.98,1.42,1.72H892.92z"/>
	<path class="st4" d="M896.43,411.86v2.87h3.08v0.64h-3.08v2.91h3.43v0.64h-4.24v-7.7h4.24v0.64H896.43z"/>
	<path class="st4" d="M907.59,418.92h-0.81l-4.5-6.47v6.47h-0.81v-7.69h0.81l4.5,6.46v-6.46h0.81V418.92z"/>
	<path class="st4" d="M909.59,413.04c0.35-0.6,0.83-1.06,1.43-1.4c0.6-0.33,1.28-0.5,2.02-0.5c0.91,0,1.68,0.2,2.33,0.61
		s1.12,0.98,1.41,1.72h-0.95c-0.23-0.52-0.59-0.93-1.06-1.22c-0.48-0.29-1.05-0.44-1.73-0.44c-0.6,0-1.13,0.13-1.61,0.4
		c-0.48,0.26-0.85,0.64-1.12,1.14c-0.27,0.5-0.41,1.07-0.41,1.72c0,0.65,0.14,1.23,0.41,1.72c0.27,0.49,0.65,0.87,1.12,1.13
		c0.48,0.26,1.01,0.4,1.61,0.4c0.67,0,1.25-0.14,1.73-0.43c0.48-0.29,0.83-0.69,1.06-1.2h0.95c-0.29,0.73-0.77,1.3-1.42,1.7
		c-0.65,0.4-1.43,0.61-2.33,0.61c-0.74,0-1.42-0.17-2.02-0.5c-0.6-0.33-1.08-0.8-1.43-1.39c-0.35-0.59-0.52-1.27-0.52-2.02
		C909.07,414.31,909.24,413.64,909.59,413.04z"/>
	<path class="st4" d="M919.22,411.86v2.87h3.08v0.64h-3.08v2.91h3.43v0.64h-4.24v-7.7h4.24v0.64H919.22z"/>
</g>
<g id="Symbol_00000120555042273383721920000013882908333302024078_" class="st3">
	<path class="st5" d="M715.04,351.58c16.79-5.37,35.67,1.51,44.06,16.85c9.27,16.93,2.27,37.77-15.63,46.54
		c-10.77,5.27-23.02,4.98-33.1,0.22c-0.24-0.11-0.42-0.26-0.54-0.49c-0.29-0.53-0.07-1.18,0.49-1.45c0.34-0.17,0.72-0.15,1.04-0.01
		c9.95,4.6,21.19,4.65,31.07-0.19c16.78-8.22,23.34-27.75,14.65-43.63c-7.86-14.37-25.52-20.82-41.25-15.82
		c0.05,1.29-0.68,2.55-1.97,3.19c-1.42,0.7-3.1,0.42-4.2-0.57c-2.74,1.49-5.19,3.29-7.32,5.32c-0.09,0.09-0.18,0.15-0.3,0.21
		c-0.56,0.27-1.25,0.07-1.54-0.46c-0.23-0.42-0.14-0.93,0.2-1.25c2.47-2.29,4.94-4.14,7.88-5.72c-0.27-1.45,0.46-2.95,1.92-3.66
		C712.08,349.89,713.98,350.31,715.04,351.58z"/>
	<path class="st6" d="M755.92,354.02L755.92,354.02l0.02,0.02l0,0c3.67,3.17,6.82,7,9.23,11.41c7.89,14.42,5.85,31.22-3.77,43.41
		c0.05,0.08,0.1,0.16,0.14,0.24c0.93,1.69,0.23,3.78-1.56,4.65c-1.04,0.51-2.22,0.5-3.21,0.07c-2.95,2.68-6.34,5.02-10.16,6.89
		c-6.36,3.12-13.16,4.59-19.86,4.6l-0.03,0l-0.01,0c-0.41,0-0.81-0.21-1.01-0.58c-0.29-0.53-0.07-1.18,0.49-1.45
		c0.17-0.08,0.35-0.12,0.52-0.12l0.02,0c6.35,0,12.79-1.4,18.82-4.36c3.58-1.75,6.77-3.94,9.54-6.45l-0.04-0.07
		c-0.93-1.69-0.23-3.78,1.56-4.65c0.98-0.48,2.07-0.5,3.02-0.14c9.06-11.54,10.96-27.41,3.5-41.04c-2.29-4.19-5.28-7.81-8.75-10.82
		l0,0l-0.02-0.02c-0.1-0.08-0.18-0.19-0.24-0.3c-0.29-0.53-0.07-1.18,0.49-1.45C755.07,353.64,755.58,353.72,755.92,354.02z"/>
	<path class="st5" d="M773.28,366.65c1.35-0.03,2.66,0.65,3.33,1.86c0.86,1.57,0.32,3.46-1.18,4.43
		c5.44,20.82-4.64,43.22-25.66,53.52c-0.83,0.41-1.67,0.79-2.51,1.15l-0.03,0.01l-0.01,0c-0.55,0.23-1.2,0.02-1.48-0.49
		c-0.29-0.53-0.07-1.18,0.49-1.45l0.06-0.03l0.02-0.01c0.81-0.34,1.61-0.71,2.4-1.1c20.04-9.81,29.66-31.15,24.52-51
		c-1.27-0.04-2.49-0.72-3.11-1.86c-0.82-1.5-0.36-3.32,1-4.32c-0.56-1.32-1.19-2.62-1.89-3.9c-7.9-14.44-22.87-23.16-38.83-24.35
		l-0.03,0c-0.38-0.03-0.75-0.23-0.94-0.58c-0.29-0.53-0.07-1.18,0.49-1.46c0.21-0.1,0.43-0.14,0.65-0.11
		c16.72,1.24,32.4,10.38,40.68,25.51C772.01,363.85,772.68,365.24,773.28,366.65z"/>
</g>
<text transform="matrix(1.0571 0 0 1 784.7114 419.1089)" class="st3" style="font-family:'Poppins-Regular'; font-size:10.7599px;">BUSINESS INTELLIGENCE</text>
<path class="st7" d="M62.91,299.13h125.87c1.35,0,2.44,1.09,2.44,2.43v23.24c0,1.34-1.09,2.43-2.44,2.43H62.91
	c-1.35,0-2.44-1.09-2.44-2.43v-23.24C60.48,300.21,61.57,299.13,62.91,299.13z"/>
<path class="st7" d="M59.08,323.78v-211.1c0-1.31,0.89-2.45,2.15-2.77l27.93-7.04c1.57,0,2.84,1.28,2.84,2.86v218.05
	c0,1.58-1.27,2.86-2.84,2.86H61.93C60.36,326.64,59.08,325.36,59.08,323.78z"/>
<path class="st7" d="M246.25,271.56c-1.83,0.42-2.77,2.49-1.87,4.15c4.9,9.03,11.77,15.4,20.62,19.09c9.9,4.14,21,4.81,33.28,2.01
	c16.11-3.67,27.16-11.98,33.16-24.94c0.61-1.31,2.07-1.98,3.44-1.54l24.59,7.81c1.61,0.51,2.43,2.31,1.76,3.87
	c-10.08,23.37-28.92,38.19-56.53,44.47c-24.18,5.5-45.39,2.52-63.63-8.95c-18.23-11.47-29.92-28.56-35.08-51.28
	c-5.06-22.32-1.97-42.67,9.29-61.06c11.26-18.39,28.38-30.19,51.37-35.42c21.8-4.96,41.44-1.35,58.89,10.81
	c17.46,12.17,28.67,29.21,33.64,51.13c0.65,2.88,1.2,6.62,1.64,11.22c0.14,1.43-0.8,2.74-2.2,3.05l-112.37,25.57L246.25,271.56z
	 M239.92,245.34l80.54-18.32c1.79-0.41,2.73-2.4,1.92-4.06c-4.83-9.9-11.42-16.83-19.76-20.8c-9.23-4.39-19.1-5.4-29.61-3.01
	c-11.89,2.71-21.06,8.25-27.5,16.63c-5.76,7.5-8.79,16.4-9.08,26.69C236.39,244.34,238.1,245.76,239.92,245.34L239.92,245.34z"/>
<path class="st7" d="M553.48,322.62V175.07c0-1.58,1.27-2.86,2.84-2.86h27.24c1.57,0,2.84,1.28,2.84,2.86v147.55
	c0,1.58-1.27,2.86-2.84,2.86h-27.24C554.75,325.48,553.48,324.2,553.48,322.62z"/>
<path class="st7" d="M721.84,172.21h27.24c1.57,0,2.84,1.28,2.84,2.86v147.55c0,1.58-1.27,2.86-2.84,2.86h-27.24
	c-1.57,0-2.84-1.28-2.84-2.86v-12.2c0-1.38-1.73-1.94-2.57-0.85c-10.01,13.27-24.92,19.89-44.7,19.89
	c-17.48,0-31.61-5.62-42.38-16.86c-10.77-11.24-16.16-26.67-16.16-46.29v-91.24c0-1.58,1.27-2.86,2.84-2.86h27.24
	c1.57,0,2.84,1.28,2.84,2.86v87.88c0,11.45,3.05,20.23,9.15,26.37c6.1,6.13,14.43,9.2,25,9.2c11.58,0,20.94-3.62,28.05-10.88
	c7.12-7.25,10.68-18.34,10.68-33.26v-79.29C719,173.49,720.27,172.21,721.84,172.21z"/>
<path class="st7" d="M949.73,168.23c17.28,0,31.2,5.62,41.78,16.86c10.57,11.24,15.85,26.36,15.85,45.36v92.17
	c0,1.58-1.27,2.86-2.84,2.86h-27.24c-1.57,0-2.85-1.28-2.85-2.86v-90.02c0-10.62-2.64-18.85-7.92-24.68
	c-5.29-5.82-12.5-8.74-21.65-8.74c-10.16,0-18.24,3.37-24.24,10.12c-6,6.74-9,16.86-9,30.34v82.97c0,1.58-1.27,2.86-2.84,2.86
	h-27.24c-1.57,0-2.84-1.28-2.84-2.86V232.6c0-10.62-2.5-18.85-7.47-24.68c-4.98-5.82-12.05-8.74-21.19-8.74
	c-9.97,0-18.1,3.42-24.39,10.27c-6.3,6.85-9.45,16.91-9.45,30.19v82.97c0,1.58-1.27,2.86-2.84,2.86H786.1
	c-1.57,0-2.84-1.28-2.84-2.86V175.07c0-1.58,1.27-2.86,2.84-2.86h27.24c1.57,0,2.84,1.28,2.84,2.86v7.14c0,2.6,3.2,3.87,4.93,1.94
	c9.49-10.62,22.38-15.93,38.68-15.93c18.02,0,31.7,6.88,41.05,20.63c1.1,1.62,3.46,1.67,4.62,0.09
	C915.61,175.14,930.36,168.23,949.73,168.23L949.73,168.23z"/>
<path class="st8" d="M474.05,151.74c0,15.78-12.73,28.59-28.43,28.59c-15.7,0-28.43-12.8-28.43-28.59
	c0-15.79,12.73-28.57,28.43-28.57C461.32,123.16,474.05,135.96,474.05,151.74z"/>
<path class="st8" d="M422.58,248.36l-61.05-70.82c-1.19-1.38-0.21-3.52,1.6-3.52h15.46c16.7,0,30.11,6.7,40.21,20.11
	c0.04,0.06,0.09,0.11,0.14,0.16l25.91,27.58c0.83,0.89,2.24,0.89,3.07,0l26.01-27.58c0.05-0.05,0.1-0.11,0.14-0.17
	c10.03-13.4,23.4-20.1,40.11-20.1h15.46c1.81,0,2.79,2.14,1.6,3.52l-61.05,70.82c-0.69,0.8-0.69,1.99,0,2.79l61.05,70.81
	c1.19,1.38,0.21,3.52-1.6,3.52h-39.6c-0.61,0-1.19-0.27-1.6-0.74l-40.45-46.89c-0.85-0.98-2.35-0.98-3.19,0l-40.45,46.89
	c-0.4,0.46-0.98,0.74-1.6,0.74h-39.6c-1.81,0-2.79-2.14-1.6-3.52l61.05-70.81C423.28,250.35,423.28,249.16,422.58,248.36
	L422.58,248.36z"/>
</svg>
