<svg width="766" height="122" viewBox="0 0 766 122" fill="none" xmlns="http://www.w3.org/2000/svg">
<path d="M336.303 15.5742C336.303 18.6545 335.389 21.6657 333.677 24.2268C331.965 26.788 329.532 28.7842 326.685 29.963C323.838 31.1418 320.705 31.4502 317.683 30.8492C314.661 30.2483 311.885 28.765 309.706 26.5869C307.527 24.4088 306.043 21.6337 305.442 18.6126C304.841 15.5915 305.149 12.4601 306.329 9.61424C307.508 6.76842 309.505 4.33606 312.067 2.62474C314.629 0.91342 317.641 0 320.723 0C324.855 0 328.817 1.64085 331.739 4.56159C334.661 7.48233 336.303 11.4437 336.303 15.5742V15.5742Z" fill="#F78E1E"/>
<path d="M29.4289 99.5019H121.68C121.68 114.269 111.87 121.646 92.251 121.635H29.4289C9.80964 121.635 0 114.257 0 99.5019V33.121C0 18.3543 9.80964 10.9768 29.4289 10.9883V99.5019Z" fill="#000F9F"/>
<path d="M161.98 99.5019H254.301C254.301 114.269 244.462 121.646 224.785 121.635H161.98C142.361 121.635 132.523 114.257 132.465 99.5019V33.121C132.465 18.3543 142.303 10.9768 161.98 10.9883H224.699C244.387 10.9883 254.226 18.3659 254.214 33.121H161.98V55.2365H239.448C239.448 69.9916 229.609 77.3692 209.932 77.3692H161.98V99.5019Z" fill="#000F9F"/>
<path d="M304.762 66.3113L256.793 10.9362H271.611C277.372 10.79 283.081 12.0576 288.239 14.6278C293.397 17.1981 297.845 20.9928 301.196 25.6798L321.415 47.0858L341.704 25.6798C345.035 20.9894 349.47 17.1909 354.618 14.6196C359.766 12.0483 365.467 10.7833 371.22 10.9362H385.865L337.913 66.3113L385.865 121.686H352.714L321.363 85.5368L289.996 121.686H256.793L304.762 66.3113Z" fill="#F78E1E"/>
<path d="M396.806 10.9883H426.321V99.5019C426.321 114.269 416.483 121.646 396.806 121.635V10.9883Z" fill="#000F9F"/>
<path d="M471.174 95.816C471.102 96.3169 471.147 96.8278 471.307 97.3081C471.466 97.7883 471.736 98.2248 472.094 98.5826C472.452 98.9405 472.889 99.2099 473.369 99.3695C473.849 99.5291 474.361 99.5744 474.862 99.5019H530.257C530.758 99.5744 531.269 99.5291 531.75 99.3695C532.23 99.2099 532.667 98.9405 533.025 98.5826C533.383 98.2248 533.652 97.7883 533.812 97.3081C533.972 96.8278 534.017 96.3169 533.944 95.816V11.0229H563.46V99.5365C563.46 114.303 553.621 121.681 533.944 121.669H471.174C451.497 121.669 441.688 114.292 441.745 99.5365V10.9883C461.434 10.9883 471.244 18.3659 471.174 33.121V95.816Z" fill="#000F9F"/>
<path d="M656.974 62.6252L690.107 25.7315C693.458 21.0445 697.907 17.2498 703.064 14.6795C708.222 12.1093 713.931 10.8417 719.692 10.9879H734.458V121.634C714.781 121.634 704.972 114.257 705.03 99.5015V47.8643L657.06 99.5015L609.109 47.8643V99.5015C609.109 114.268 599.299 121.646 579.68 121.634V10.9879H594.429C600.19 10.8417 605.899 12.1093 611.057 14.6795C616.214 17.2498 620.663 21.0445 624.013 25.7315L656.974 62.6252Z" fill="#000F9F"/>
<path d="M754.281 11.3691C756.274 11.3765 758.234 11.8885 759.976 12.8573C761.807 13.8211 763.308 15.3095 764.286 17.1316C765.29 18.8865 765.818 20.8728 765.818 22.8941C765.818 24.9154 765.29 26.9017 764.286 28.6565C763.314 30.4703 761.834 31.9615 760.028 32.9481C758.274 33.9464 756.29 34.4714 754.272 34.4714C752.254 34.4714 750.27 33.9464 748.516 32.9481C746.712 31.9523 745.229 30.4638 744.24 28.6565C743.245 26.9114 742.72 24.9377 742.717 22.9287C742.723 20.896 743.254 18.8994 744.258 17.1316C745.257 15.3188 746.76 13.8342 748.585 12.8573C750.326 11.8857 752.287 11.3735 754.281 11.3691V11.3691ZM754.281 13.2727C752.623 13.2822 750.996 13.7172 749.555 14.5359C748.031 15.3461 746.779 16.5856 745.954 18.1007C745.095 19.5649 744.641 21.2312 744.638 22.9287C744.645 24.6047 745.086 26.2503 745.919 27.7048C746.753 29.2073 747.996 30.4432 749.503 31.2696C750.959 32.1078 752.609 32.549 754.289 32.549C755.969 32.549 757.62 32.1078 759.076 31.2696C760.585 30.4524 761.824 29.2138 762.642 27.7048C763.487 26.2454 763.932 24.589 763.932 22.9027C763.932 21.2165 763.487 19.5601 762.642 18.1007C761.817 16.5856 760.565 15.3461 759.041 14.5359C757.59 13.7122 755.95 13.277 754.281 13.2727V13.2727ZM749.226 29.3141V16.872H753.502C754.569 16.8273 755.637 16.944 756.67 17.2181C757.305 17.4447 757.851 17.8693 758.227 18.4295C758.586 18.9378 758.79 19.5386 758.816 20.1599C758.818 20.6009 758.732 21.0379 758.562 21.445C758.393 21.8522 758.144 22.2213 757.829 22.5307C757.148 23.2255 756.223 23.6288 755.25 23.6555C755.642 23.8103 756.001 24.0395 756.306 24.3304C757.013 25.0737 757.629 25.8986 758.141 26.7877L759.664 29.2276H757.206L756.116 27.2549C755.589 26.1779 754.881 25.2002 754.021 24.365C753.544 24.0524 752.98 23.9008 752.411 23.9324H751.234V29.2276L749.226 29.3141ZM751.234 22.3923H753.657C754.489 22.4739 755.324 22.2923 756.046 21.8731C756.246 21.7067 756.406 21.4974 756.514 21.2607C756.622 21.024 756.675 20.7661 756.67 20.506C756.674 20.155 756.571 19.811 756.375 19.5197C756.162 19.223 755.867 18.9946 755.527 18.8621C754.867 18.6879 754.183 18.6179 753.502 18.6544H751.234V22.3923Z" fill="#000F9F"/>
</svg>
