<?xml version="1.0" encoding="utf-8"?>
<!-- Generator: Adobe Illustrator 27.8.0, SVG Export Plug-In . SVG Version: 6.00 Build 0)  -->
<svg version="1.1" id="Capa_1" xmlns="http://www.w3.org/2000/svg" xmlns:xlink="http://www.w3.org/1999/xlink" x="0px" y="0px"
	 viewBox="0 0 140 50" style="enable-background:new 0 0 140 50;" xml:space="preserve">
<style type="text/css">
	.st0{display:none;}
	.st1{display:inline;fill:#050259;}
	.st2{display:inline;fill-rule:evenodd;clip-rule:evenodd;fill:#0528F2;}
	.st3{display:inline;fill-rule:evenodd;clip-rule:evenodd;fill:#BD0A7D;}
	.st4{fill-rule:evenodd;clip-rule:evenodd;fill:#00236E;}
	.st5{fill-rule:evenodd;clip-rule:evenodd;fill:#F24405;}
	.st6{fill:#00236E;}
	.st7{fill:#F24405;}
</style>
<text transform="matrix(1.0571 0 0 1 232.6914 69.0818)" style="display:none;fill:#0528F2;enable-background:new    ; font-family:'ArialMT'; font-size:62.324px;">Goldmind</text>
<g id="Education_Intelligence_00000165195950111667497030000007400295925224173966_" class="st0">
	<path class="st1" d="M315,75.4v2.9h3.1v0.6H315v2.9h3.4v0.6h-4.2v-7.7h4.2v0.6L315,75.4L315,75.4z"/>
	<path class="st1" d="M324.8,75.2c0.6,0.3,1.1,0.8,1.5,1.3s0.5,1.3,0.5,2.1c0,0.8-0.2,1.5-0.5,2c-0.3,0.6-0.8,1-1.5,1.3
		c-0.6,0.3-1.4,0.5-2.3,0.5h-2.4v-7.7h2.4C323.4,74.7,324.2,74.9,324.8,75.2z M325.1,81c0.6-0.6,0.9-1.3,0.9-2.4s-0.3-1.8-0.9-2.4
		s-1.5-0.9-2.6-0.9h-1.6v6.4h1.6C323.6,81.8,324.5,81.5,325.1,81z"/>
	<path class="st1" d="M329.1,74.7v4.8c0,0.8,0.2,1.3,0.6,1.7c0.4,0.4,0.9,0.5,1.6,0.5c0.7,0,1.2-0.2,1.6-0.5
		c0.4-0.4,0.6-0.9,0.6-1.7v-4.8h0.8v4.8c0,1-0.3,1.7-0.8,2.2c-0.5,0.5-1.3,0.7-2.1,0.7c-0.9,0-1.6-0.2-2.1-0.7
		c-0.5-0.5-0.8-1.2-0.8-2.2v-4.8L329.1,74.7L329.1,74.7z"/>
	<path class="st1" d="M336.1,76.6c0.3-0.6,0.8-1.1,1.4-1.4c0.6-0.3,1.3-0.5,2-0.5c0.9,0,1.7,0.2,2.3,0.6s1.1,1,1.4,1.7h-1
		c-0.2-0.5-0.6-0.9-1.1-1.2c-0.5-0.3-1-0.4-1.7-0.4c-0.6,0-1.1,0.1-1.6,0.4c-0.5,0.3-0.8,0.6-1.1,1.1s-0.4,1.1-0.4,1.7
		s0.1,1.2,0.4,1.7c0.3,0.5,0.7,0.9,1.1,1.1c0.5,0.3,1,0.4,1.6,0.4c0.7,0,1.2-0.1,1.7-0.4c0.5-0.3,0.8-0.7,1.1-1.2h1
		c-0.3,0.7-0.8,1.3-1.4,1.7c-0.7,0.4-1.4,0.6-2.3,0.6c-0.7,0-1.4-0.2-2-0.5c-0.6-0.3-1.1-0.8-1.4-1.4c-0.3-0.6-0.5-1.3-0.5-2
		C335.6,77.8,335.8,77.2,336.1,76.6z"/>
	<path class="st1" d="M349.7,80.6H346l-0.7,1.8h-0.9l3-7.6h0.9l3,7.6h-0.9L349.7,80.6z M349.4,80l-1.6-4.2l-1.6,4.2H349.4z"/>
	<path class="st1" d="M357.3,74.7v0.6H355v7h-0.8v-7h-2.3v-0.6H357.3z"/>
	<path class="st1" d="M359.4,74.7v7.7h-0.8v-7.7H359.4z"/>
	<path class="st1" d="M362.8,82c-0.6-0.3-1.1-0.8-1.5-1.4c-0.3-0.6-0.5-1.3-0.5-2c0-0.8,0.2-1.4,0.5-2c0.3-0.6,0.8-1.1,1.5-1.4
		c0.6-0.3,1.3-0.5,2-0.5s1.5,0.2,2.1,0.5s1.1,0.8,1.4,1.4s0.5,1.3,0.5,2s-0.2,1.4-0.5,2c-0.3,0.6-0.8,1.1-1.4,1.4s-1.3,0.5-2.1,0.5
		S363.4,82.3,362.8,82z M366.5,81.4c0.5-0.3,0.9-0.6,1.1-1.1s0.4-1.1,0.4-1.7s-0.1-1.2-0.4-1.7s-0.7-0.9-1.1-1.1
		c-0.5-0.3-1-0.4-1.6-0.4s-1.2,0.1-1.6,0.4c-0.5,0.3-0.9,0.6-1.1,1.1s-0.4,1.1-0.4,1.7c0,0.6,0.1,1.2,0.4,1.7
		c0.3,0.5,0.7,0.9,1.1,1.1c0.5,0.3,1,0.4,1.6,0.4S366,81.7,366.5,81.4z"/>
	<path class="st1" d="M376.5,82.4h-0.8l-4.5-6.5v6.5h-0.8v-7.7h0.8l4.5,6.5v-6.5h0.8V82.4z"/>
	<path class="st1" d="M382.4,74.7v7.7h-0.8v-7.7H382.4z"/>
	<path class="st1" d="M390.3,82.4h-0.8L385,76v6.5h-0.8v-7.7h0.8l4.5,6.5v-6.5h0.8V82.4z"/>
	<path class="st1" d="M396.9,74.7v0.6h-2.3v7h-0.8v-7h-2.3v-0.6H396.9z"/>
	<path class="st1" d="M399,75.4v2.9h3.1v0.6H399v2.9h3.4v0.6h-4.2v-7.7h4.2v0.6L399,75.4L399,75.4z"/>
	<path class="st1" d="M404.9,81.8h2.9v0.6h-3.7v-7.7h0.8V81.8z"/>
	<path class="st1" d="M409.8,81.8h2.9v0.6H409v-7.7h0.8V81.8z"/>
	<path class="st1" d="M414.7,74.7v7.7h-0.8v-7.7H414.7z"/>
	<path class="st1" d="M422.9,77c-0.2-0.5-0.6-0.9-1.1-1.2c-0.5-0.3-1-0.4-1.7-0.4c-0.6,0-1.2,0.1-1.6,0.4c-0.5,0.3-0.9,0.6-1.1,1.1
		s-0.4,1-0.4,1.7c0,0.6,0.1,1.2,0.4,1.7c0.3,0.5,0.7,0.9,1.1,1.1c0.5,0.3,1,0.4,1.6,0.4c0.6,0,1.1-0.1,1.5-0.4s0.8-0.6,1.1-1
		s0.4-0.9,0.5-1.5h-3.4v-0.6h4.3v0.6c0,0.7-0.2,1.3-0.6,1.8c-0.3,0.5-0.8,1-1.4,1.3c-0.6,0.3-1.2,0.5-2,0.5c-0.8,0-1.4-0.2-2-0.5
		c-0.6-0.3-1.1-0.8-1.5-1.4c-0.3-0.6-0.5-1.3-0.5-2c0-0.8,0.2-1.4,0.5-2c0.3-0.6,0.8-1.1,1.5-1.4c0.6-0.3,1.3-0.5,2-0.5
		c0.9,0,1.6,0.2,2.3,0.6s1.1,1,1.4,1.7L422.9,77L422.9,77z"/>
	<path class="st1" d="M426.4,75.4v2.9h3.1v0.6h-3.1v2.9h3.4v0.6h-4.2v-7.7h4.2v0.6L426.4,75.4L426.4,75.4z"/>
	<path class="st1" d="M437.6,82.4h-0.8l-4.5-6.5v6.5h-0.8v-7.7h0.8l4.5,6.5v-6.5h0.8V82.4z"/>
	<path class="st1" d="M439.6,76.6c0.3-0.6,0.8-1.1,1.4-1.4c0.6-0.3,1.3-0.5,2-0.5c0.9,0,1.7,0.2,2.3,0.6s1.1,1,1.4,1.7h-1
		c-0.2-0.5-0.6-0.9-1.1-1.2c-0.5-0.3-1-0.4-1.7-0.4c-0.6,0-1.1,0.1-1.6,0.4c-0.5,0.3-0.8,0.6-1.1,1.1s-0.4,1.1-0.4,1.7
		s0.1,1.2,0.4,1.7c0.3,0.5,0.7,0.9,1.1,1.1c0.5,0.3,1,0.4,1.6,0.4c0.7,0,1.2-0.1,1.7-0.4c0.5-0.3,0.8-0.7,1.1-1.2h1
		c-0.3,0.7-0.8,1.3-1.4,1.7c-0.7,0.4-1.4,0.6-2.3,0.6c-0.7,0-1.4-0.2-2-0.5c-0.6-0.3-1.1-0.8-1.4-1.4c-0.3-0.6-0.5-1.3-0.5-2
		C439.1,77.8,439.2,77.2,439.6,76.6z"/>
	<path class="st1" d="M449.2,75.4v2.9h3.1v0.6h-3.1v2.9h3.4v0.6h-4.2v-7.7h4.2v0.6L449.2,75.4L449.2,75.4z"/>
</g>
<g id="Symbol_00000120555042273383721920000013882908333302024078_" class="st0">
	<path class="st2" d="M245,15.1c16.8-5.4,35.7,1.5,44.1,16.9c9.3,16.9,2.3,37.8-15.6,46.5c-10.8,5.3-23,5-33.1,0.2
		c-0.2-0.1-0.4-0.3-0.5-0.5c-0.3-0.5-0.1-1.2,0.5-1.5c0.3-0.2,0.7-0.1,1,0c10,4.6,21.2,4.6,31.1-0.2c16.8-8.2,23.3-27.8,14.7-43.6
		c-7.9-14.4-25.5-20.8-41.2-15.8c0,1.3-0.7,2.5-2,3.2c-1.4,0.7-3.1,0.4-4.2-0.6c-2.7,1.5-5.2,3.3-7.3,5.3c-0.1,0.1-0.2,0.1-0.3,0.2
		c-0.6,0.3-1.2,0.1-1.5-0.5c-0.2-0.4-0.1-0.9,0.2-1.2c2.5-2.3,4.9-4.1,7.9-5.7c-0.3-1.5,0.5-3,1.9-3.7C242.1,13.4,244,13.8,245,15.1
		z"/>
	<path class="st3" d="M285.9,17.5L285.9,17.5L285.9,17.5L285.9,17.5c3.7,3.2,6.8,7,9.2,11.4c7.9,14.4,5.8,31.2-3.8,43.4
		c0,0.1,0.1,0.2,0.1,0.2c0.9,1.7,0.2,3.8-1.6,4.6c-1,0.5-2.2,0.5-3.2,0.1c-3,2.7-6.3,5-10.2,6.9c-6.4,3.1-13.2,4.6-19.9,4.6h0h0
		c-0.4,0-0.8-0.2-1-0.6c-0.3-0.5-0.1-1.2,0.5-1.5c0.2-0.1,0.3-0.1,0.5-0.1h0c6.3,0,12.8-1.4,18.8-4.4c3.6-1.8,6.8-3.9,9.5-6.5l0-0.1
		c-0.9-1.7-0.2-3.8,1.6-4.6c1-0.5,2.1-0.5,3-0.1c9.1-11.5,11-27.4,3.5-41c-2.3-4.2-5.3-7.8-8.8-10.8l0,0l0,0
		c-0.1-0.1-0.2-0.2-0.2-0.3c-0.3-0.5-0.1-1.2,0.5-1.5C285.1,17.2,285.6,17.2,285.9,17.5z"/>
	<path class="st2" d="M303.3,30.2c1.3,0,2.7,0.6,3.3,1.9c0.9,1.6,0.3,3.5-1.2,4.4c5.4,20.8-4.6,43.2-25.7,53.5
		c-0.8,0.4-1.7,0.8-2.5,1.1l0,0h0c-0.5,0.2-1.2,0-1.5-0.5c-0.3-0.5-0.1-1.2,0.5-1.5l0.1,0l0,0c0.8-0.3,1.6-0.7,2.4-1.1
		c20-9.8,29.7-31.1,24.5-51c-1.3,0-2.5-0.7-3.1-1.9c-0.8-1.5-0.4-3.3,1-4.3c-0.6-1.3-1.2-2.6-1.9-3.9c-7.9-14.4-22.9-23.2-38.8-24.4
		h0c-0.4,0-0.8-0.2-0.9-0.6c-0.3-0.5-0.1-1.2,0.5-1.5c0.2-0.1,0.4-0.1,0.7-0.1C277.3,1.7,293,10.9,301.3,26
		C302,27.4,302.7,28.8,303.3,30.2z"/>
</g>
<text transform="matrix(1.0571 0 0 1 314.7109 82.6189)" style="display:none;enable-background:new    ; font-family:'Poppins-Regular'; font-size:10.7599px;">BUSINESS INTELLIGENCE</text>
<g>
	<g id="Symbol_00000177471491304502176950000000122108727391955628_">
		<path class="st4" d="M108.4,7.9c-2.2-0.8-4.7,0.2-5.8,2.4c-1.2,2.5-0.3,5.5,2.1,6.7c1.4,0.8,3,0.7,4.4,0c0,0,0.1,0,0.1-0.1
			c0-0.1,0-0.2-0.1-0.2c0,0-0.1,0-0.1,0c-1.3,0.7-2.8,0.7-4.1,0c-2.2-1.2-3.1-4-1.9-6.3c1-2.1,3.4-3,5.4-2.3c0,0.2,0.1,0.4,0.3,0.5
			c0.2,0.1,0.4,0.1,0.6-0.1c0.4,0.2,0.7,0.5,1,0.8c0,0,0,0,0,0c0.1,0,0.2,0,0.2-0.1c0-0.1,0-0.1,0-0.2c-0.3-0.3-0.7-0.6-1-0.8
			c0-0.2-0.1-0.4-0.3-0.5C108.8,7.6,108.6,7.7,108.4,7.9z"/>
		<path class="st5" d="M103,8.2L103,8.2L103,8.2L103,8.2c-0.5,0.5-0.9,1-1.2,1.7c-1,2.1-0.8,4.5,0.5,6.3c0,0,0,0,0,0
			c-0.1,0.2,0,0.5,0.2,0.7c0.1,0.1,0.3,0.1,0.4,0c0.4,0.4,0.8,0.7,1.3,1c0.8,0.5,1.7,0.7,2.6,0.7h0l0,0c0.1,0,0.1,0,0.1-0.1
			c0-0.1,0-0.2-0.1-0.2c0,0,0,0-0.1,0h0c-0.8,0-1.7-0.2-2.5-0.6c-0.5-0.3-0.9-0.6-1.3-0.9l0,0c0.1-0.2,0-0.5-0.2-0.7
			c-0.1-0.1-0.3-0.1-0.4,0c-1.2-1.7-1.4-4-0.5-6c0.3-0.6,0.7-1.1,1.2-1.6l0,0l0,0c0,0,0,0,0,0c0-0.1,0-0.2-0.1-0.2
			C103.1,8.2,103.1,8.2,103,8.2z"/>
		<path class="st4" d="M100.7,10.1c-0.2,0-0.4,0.1-0.4,0.3c-0.1,0.2,0,0.5,0.2,0.6c-0.7,3,0.6,6.3,3.4,7.8c0.1,0.1,0.2,0.1,0.3,0.2
			l0,0h0c0.1,0,0.2,0,0.2-0.1c0-0.1,0-0.2-0.1-0.2l0,0l0,0c-0.1,0-0.2-0.1-0.3-0.2c-2.6-1.4-3.9-4.5-3.2-7.4c0.2,0,0.3-0.1,0.4-0.3
			c0.1-0.2,0-0.5-0.1-0.6c0.1-0.2,0.2-0.4,0.3-0.6c1-2.1,3-3.4,5.1-3.5h0c0.1,0,0.1,0,0.1-0.1c0-0.1,0-0.2-0.1-0.2c0,0-0.1,0-0.1,0
			c-2.2,0.2-4.3,1.5-5.4,3.7C100.9,9.7,100.8,9.9,100.7,10.1z"/>
	</g>
	<g>
		<path class="st6" d="M107,9.3c1.1,0,1.9,0.4,2.5,1.1l-0.9,0.6c-0.4-0.5-0.9-0.7-1.6-0.7c-1.3,0-2,0.9-2,2.2s0.7,2.2,2,2.2
			c0.5,0,1-0.1,1.3-0.4v-1.1H107v-1h2.4v2.5c-0.5,0.6-1.3,1-2.4,1c-1.9,0-3.1-1.3-3.1-3.3C103.9,10.6,105.1,9.3,107,9.3z"/>
		<path class="st6" d="M111.9,11.1c1.3,0,2.2,0.9,2.2,2.3c0,1.4-0.9,2.3-2.2,2.3c-1.3,0-2.3-0.9-2.3-2.3
			C109.7,12.1,110.6,11.1,111.9,11.1z M111.9,14.8c0.7,0,1.2-0.5,1.2-1.3s-0.5-1.3-1.2-1.3c-0.7,0-1.2,0.5-1.2,1.3
			S111.2,14.8,111.9,14.8z"/>
		<path class="st6" d="M114.6,9.4h1v6.3h-1V9.4z"/>
		<path class="st6" d="M120.5,9.4v4.1c0,1.5-1,2.3-2.3,2.3c-1.3,0-2.2-0.9-2.2-2.3c0-1.4,0.9-2.3,2.2-2.3c0.6,0,1.1,0.2,1.3,0.5V9.4
			H120.5z M118.3,14.8c0.7,0,1.2-0.5,1.2-1.3s-0.5-1.3-1.2-1.3c-0.7,0-1.2,0.5-1.2,1.3S117.5,14.8,118.3,14.8z"/>
		<path class="st6" d="M124.5,11.8c0.3-0.4,0.7-0.7,1.5-0.7c1.4,0,2,1.1,2,1.9v2.7h-1V13c0-0.6-0.5-0.9-1-0.9c-0.5,0-1,0.3-1,0.9
			v2.7h-1V13c0-0.6-0.5-0.9-1-0.9c-0.5,0-1,0.3-1,0.9v2.7h-1V13c0-0.8,0.6-1.9,2-1.9C123.7,11.1,124.2,11.4,124.5,11.8z"/>
		<path class="st6" d="M129,9.3c0.3,0,0.6,0.3,0.6,0.6c0,0.3-0.3,0.6-0.6,0.6c-0.3,0-0.6-0.3-0.6-0.6C128.4,9.6,128.7,9.3,129,9.3z
			 M128.5,11.2h1v4.5h-1V11.2z"/>
		<path class="st6" d="M134,13v2.7h-1V13c0-0.6-0.5-0.9-1-0.9c-0.5,0-1,0.3-1,0.9v2.7h-1V13c0-0.8,0.6-1.9,2-1.9
			C133.4,11.1,134,12.2,134,13z"/>
		<path class="st6" d="M138.9,9.4v4.1c0,1.5-1,2.3-2.3,2.3c-1.3,0-2.2-0.9-2.2-2.3c0-1.4,0.9-2.3,2.2-2.3c0.6,0,1.1,0.2,1.3,0.5V9.4
			H138.9z M136.6,14.8c0.7,0,1.2-0.5,1.2-1.3s-0.5-1.3-1.2-1.3c-0.7,0-1.2,0.5-1.2,1.3S135.9,14.8,136.6,14.8z"/>
	</g>
	<path class="st6" d="M1.7,40.1h17.2c0.2,0,0.3,0.1,0.3,0.3v3.2c0,0.2-0.1,0.3-0.3,0.3H1.7c-0.2,0-0.3-0.1-0.3-0.3v-3.2
		C1.3,40.2,1.5,40.1,1.7,40.1z"/>
	<path class="st6" d="M1.1,43.5V14.6c0-0.2,0.1-0.3,0.3-0.4l3.8-1c0.2,0,0.4,0.2,0.4,0.4v29.8c0,0.2-0.2,0.4-0.4,0.4H1.5
		C1.3,43.9,1.1,43.7,1.1,43.5z"/>
	<path class="st6" d="M26.7,36.3c-0.3,0.1-0.4,0.3-0.3,0.6c0.7,1.2,1.6,2.1,2.8,2.6c1.4,0.6,2.9,0.7,4.5,0.3
		c2.2-0.5,3.7-1.6,4.5-3.4c0.1-0.2,0.3-0.3,0.5-0.2l3.4,1.1c0.2,0.1,0.3,0.3,0.2,0.5c-1.4,3.2-4,5.2-7.7,6.1
		c-3.3,0.8-6.2,0.3-8.7-1.2c-2.5-1.6-4.1-3.9-4.8-7c-0.7-3.1-0.3-5.8,1.3-8.3s3.9-4.1,7-4.8c3-0.7,5.7-0.2,8,1.5
		c2.4,1.7,3.9,4,4.6,7c0.1,0.4,0.2,0.9,0.2,1.5c0,0.2-0.1,0.4-0.3,0.4L26.7,36.3L26.7,36.3z M25.9,32.7l11-2.5
		c0.2-0.1,0.4-0.3,0.3-0.6c-0.7-1.4-1.6-2.3-2.7-2.8c-1.3-0.6-2.6-0.7-4-0.4c-1.6,0.4-2.9,1.1-3.8,2.3c-0.8,1-1.2,2.2-1.2,3.6
		C25.4,32.6,25.6,32.8,25.9,32.7L25.9,32.7z"/>
	<path class="st6" d="M68.7,43.3V23.1c0-0.2,0.2-0.4,0.4-0.4h3.7c0.2,0,0.4,0.2,0.4,0.4v20.2c0,0.2-0.2,0.4-0.4,0.4h-3.7
		C68.9,43.7,68.7,43.5,68.7,43.3z"/>
	<path class="st6" d="M91.7,22.8h3.7c0.2,0,0.4,0.2,0.4,0.4v20.2c0,0.2-0.2,0.4-0.4,0.4h-3.7c-0.2,0-0.4-0.2-0.4-0.4v-1.7
		c0-0.2-0.2-0.3-0.4-0.1c-1.4,1.8-3.4,2.7-6.1,2.7c-2.4,0-4.3-0.8-5.8-2.3c-1.5-1.5-2.2-3.6-2.2-6.3V23.1c0-0.2,0.2-0.4,0.4-0.4H81
		c0.2,0,0.4,0.2,0.4,0.4v12c0,1.6,0.4,2.8,1.3,3.6c0.8,0.8,2,1.3,3.4,1.3c1.6,0,2.9-0.5,3.8-1.5c1-1,1.5-2.5,1.5-4.5V23.1
		C91.3,22.9,91.5,22.8,91.7,22.8z"/>
	<path class="st6" d="M122.9,22.2c2.4,0,4.3,0.8,5.7,2.3c1.4,1.5,2.2,3.6,2.2,6.2v12.6c0,0.2-0.2,0.4-0.4,0.4h-3.7
		c-0.2,0-0.4-0.2-0.4-0.4V31c0-1.5-0.4-2.6-1.1-3.4c-0.7-0.8-1.7-1.2-3-1.2c-1.4,0-2.5,0.5-3.3,1.4c-0.8,0.9-1.2,2.3-1.2,4.1v11.3
		c0,0.2-0.2,0.4-0.4,0.4h-3.7c-0.2,0-0.4-0.2-0.4-0.4V31c0-1.5-0.3-2.6-1-3.4c-0.7-0.8-1.6-1.2-2.9-1.2c-1.4,0-2.5,0.5-3.3,1.4
		c-0.9,0.9-1.3,2.3-1.3,4.1v11.3c0,0.2-0.2,0.4-0.4,0.4h-3.7c-0.2,0-0.4-0.2-0.4-0.4V23.1c0-0.2,0.2-0.4,0.4-0.4h3.7
		c0.2,0,0.4,0.2,0.4,0.4v1c0,0.4,0.4,0.5,0.7,0.3c1.3-1.5,3.1-2.2,5.3-2.2c2.5,0,4.3,0.9,5.6,2.8c0.2,0.2,0.5,0.2,0.6,0
		C118.2,23.2,120.2,22.2,122.9,22.2L122.9,22.2z"/>
	<path class="st7" d="M57.8,20c0,2.2-1.7,3.9-3.9,3.9c-2.1,0-3.9-1.7-3.9-3.9S51.8,16,54,16C56.1,16,57.8,17.8,57.8,20z"/>
	<path class="st7" d="M50.8,33.2l-8.3-9.7c-0.2-0.2,0-0.5,0.2-0.5h2.1c2.3,0,4.1,0.9,5.5,2.7c0,0,0,0,0,0l3.5,3.8
		c0.1,0.1,0.3,0.1,0.4,0l3.6-3.8c0,0,0,0,0,0c1.4-1.8,3.2-2.7,5.5-2.7h2.1c0.2,0,0.4,0.3,0.2,0.5l-8.3,9.7c-0.1,0.1-0.1,0.3,0,0.4
		l8.3,9.7c0.2,0.2,0,0.5-0.2,0.5H60c-0.1,0-0.2,0-0.2-0.1l-5.5-6.4c-0.1-0.1-0.3-0.1-0.4,0l-5.5,6.4c-0.1,0.1-0.1,0.1-0.2,0.1h-5.4
		c-0.2,0-0.4-0.3-0.2-0.5l8.3-9.7C50.9,33.4,50.9,33.3,50.8,33.2L50.8,33.2z"/>
</g>
</svg>
