<svg width="235" height="55" viewBox="0 0 235 55" fill="none" xmlns="http://www.w3.org/2000/svg">
<path d="M179.385 53.7188H160.56L151.606 40.5083H146.883L146.671 40.7194V53.7188H128.904V1.37539L129.389 1.15849C137.711 1.4047 146.201 0.85659 154.502 1.15849C160.175 1.3666 166.275 2.33679 170.969 5.68702C180.831 12.7246 180.984 28.8837 171.11 35.9886C170.428 36.4781 169.197 37.035 168.67 37.4923C168.585 37.5685 168.488 37.6095 168.541 37.7473L179.385 53.7188ZM146.671 27.1602H154.778C160.79 27.1602 162.594 18.3464 157.512 15.7231C157.077 15.4974 155.475 14.9346 155.06 14.9346H146.671V27.1602Z" fill="#00236E"/>
<path d="M233.252 14.5125H207.872V20.6971H230.151V33.4825H207.872V40.3706H234.24V53.7188H190.385V1.16437H233.041L233.252 1.37541V14.5125Z" fill="#00236E"/>
<path d="M120.723 53.7188H102.392L98.8729 44.65L78.934 44.6031L75.2478 53.7188H57.2695L80.4567 1.15262L97.8117 1.29917L120.723 53.7188ZM93.9286 31.7971L88.9902 18.7274L83.7754 31.7971H93.9286Z" fill="#00236E"/>
<path d="M26.7784 0.0797871C36.2585 -0.50643 46.6057 2.07293 52.4524 9.96928L41.1205 19.4279C37.3432 15.1544 31.2789 13.1788 25.7466 15.0723C15.0232 18.7391 15.3847 37.2225 26.5256 40.1566C31.6845 41.5166 36.2085 39.9016 40.2533 36.7243L51.0532 46.3411C46.6791 51.6757 39.6948 54.2258 32.9368 54.8413C14.0913 56.5648 -1.76162 44.1077 0.157899 24.4225C1.52773 10.365 12.9714 0.935665 26.7784 0.0797871Z" fill="#00236E"/>
<path d="M29.742 17.6459C33.1901 17.3206 36.7117 18.323 38.934 21.046L36.5911 23.0743C35.4535 22.1129 34.3894 21.2277 32.8814 20.8994C23.5366 18.8594 21.038 32.1489 29.3452 34.1216C31.9878 34.7488 34.3542 34.0483 36.3119 32.231L38.5077 34.5202C33.4076 39.673 23.4484 37.8792 21.1674 30.7508C19.1714 24.5135 23.2015 18.2673 29.7449 17.6488L29.742 17.6459Z" fill="#00236E"/>
<path d="M30.4453 22.2828C32.259 22.1275 34.2403 22.6844 35.4073 24.1382L34.1903 25.1788C33.9757 25.2169 33.3702 24.6013 33.1115 24.4606C30.1631 22.8749 26.4475 25.1905 27.3794 28.6257C28.1231 31.3751 32.0356 32.1753 33.9287 30.1118L35.2662 31.3047C34.4666 32.1987 33.2643 32.7791 32.0797 32.9022C23.6226 33.7903 22.9083 22.9306 30.4453 22.2828Z" fill="#00236E"/>
<path d="M30.971 26.1108C32.9022 26.146 32.9787 28.869 31.2414 29.1181C28.8633 29.4611 28.681 26.0698 30.971 26.1108Z" fill="#00236E"/>
</svg>
