<svg width="286" height="50" viewBox="0 0 286 50" fill="none" xmlns="http://www.w3.org/2000/svg">
<path d="M131.253 41.9313L128.236 35.0037H113.196L110.223 41.9313H106.105L118.782 13.4015H122.859L135.492 41.9313H131.253ZM114.746 31.4552H126.729L120.695 17.5966L114.746 31.4552Z" fill="#00236E"/>
<path d="M157.216 22.469C158.658 23.9486 159.376 25.9937 159.376 28.6009V41.9279H155.587V29.62C155.587 27.7984 155.079 26.3797 154.06 25.3605C153.041 24.3414 151.636 23.8335 149.841 23.8335C147.911 23.8606 146.343 24.4802 145.135 25.689C143.926 26.8978 143.238 28.4688 143.076 30.3954V41.9313H139.287V20.3697H143.076V24.9339C144.515 21.8629 147.247 20.302 151.27 20.2478C153.796 20.2478 155.78 20.9893 157.219 22.469H157.216Z" fill="#00236E"/>
<path d="M179.305 41.9313V38.9144C177.7 41.034 175.188 42.0938 171.764 42.0938C170.271 42.0938 168.957 41.8094 167.833 41.2371C166.706 40.6649 165.836 39.8794 165.226 38.8738C164.613 37.8682 164.309 36.7406 164.309 35.4912C164.309 33.5613 165.023 32.0342 166.448 30.9067C167.874 29.7792 169.865 29.2036 172.421 29.1731H179.268V28.1539C179.268 26.6337 178.8 25.4587 177.862 24.6292C176.925 23.803 175.56 23.3866 173.765 23.3866C171.592 23.3866 169.377 24.1619 167.122 25.7093L165.531 23.1021C167.078 22.0965 168.514 21.3685 169.831 20.9216C171.148 20.4713 172.719 20.2478 174.537 20.2478C177.229 20.2478 179.308 20.9047 180.774 22.2252C182.24 23.5457 182.989 25.3842 183.016 27.7476L183.056 41.9313H179.308H179.305ZM177.043 37.6718C178.279 36.8151 179.02 35.6808 179.264 34.2689V32.1087H172.946C171.233 32.1087 169.963 32.366 169.134 32.8841C168.304 33.3987 167.891 34.2147 167.891 35.3287C167.891 36.4427 168.311 37.3264 169.154 37.9765C169.997 38.63 171.124 38.955 172.536 38.955C174.3 38.955 175.804 38.525 177.04 37.6718H177.043Z" fill="#00236E"/>
<path d="M190.025 11.6882H193.818V41.9313H190.025V11.6882Z" fill="#00236E"/>
<path d="M206.266 48.7371C205.139 49.5802 203.815 50 202.291 50C201.367 50 200.524 49.8646 199.765 49.5937C199.003 49.3228 198.272 48.8996 197.564 48.3307L199.196 45.3545C200.148 46.0317 201.113 46.3737 202.091 46.3737C203.723 46.3737 204.942 45.4493 205.758 43.6006L206.574 41.6842L197.649 20.3698H201.644L208.491 37.6515L214.971 20.3698H218.845L208.982 44.9855C208.305 46.6446 207.397 47.894 206.273 48.7371H206.266Z" fill="#00236E"/>
<path d="M233.512 40.5024C231.853 41.5622 230.17 42.0938 228.457 42.0938C226.744 42.0938 225.359 41.5859 224.299 40.5667C223.239 39.5476 222.708 38.007 222.708 35.9416V23.9994H219.65V21.1044H222.708V15.3179H226.541V21.1044H233.143V23.9994H226.541V35.2475C226.541 36.4427 226.757 37.2993 227.194 37.8174C227.628 38.332 228.281 38.5928 229.151 38.5928C230.184 38.5928 231.298 38.2542 232.493 37.5736L233.512 40.5092V40.5024Z" fill="#00236E"/>
<path d="M241.149 12.4602C241.599 12.924 241.822 13.5064 241.822 14.2141C241.822 14.9217 241.599 15.5041 241.149 15.968C240.702 16.4319 240.136 16.6621 239.459 16.6621C238.782 16.6621 238.216 16.4319 237.769 15.968C237.319 15.5075 237.096 14.9217 237.096 14.2141C237.096 13.5064 237.319 12.924 237.769 12.4602C238.216 11.9997 238.782 11.7661 239.459 11.7661C240.136 11.7661 240.702 11.9963 241.149 12.4602ZM237.583 20.3697H241.372V41.9313H237.583V20.3697Z" fill="#00236E"/>
<path d="M257.715 23.6303C256.303 23.6303 255.043 23.9418 253.946 24.5682C252.846 25.1946 251.983 26.075 251.36 27.216C250.733 28.3571 250.422 29.6742 250.422 31.1708C250.422 32.6674 250.726 33.9811 251.339 35.1256C251.949 36.2666 252.792 37.1571 253.865 37.7971C254.938 38.4336 256.168 38.7553 257.552 38.7553C258.937 38.7553 260.187 38.525 261.301 38.0612C262.415 37.6007 263.339 36.9336 264.074 36.0635L266.234 38.2643C265.255 39.4866 264.013 40.4245 262.506 41.078C260.996 41.7315 259.293 42.0565 257.39 42.0565C255.297 42.0565 253.435 41.5961 251.807 40.6717C250.174 39.7473 248.905 38.4641 247.997 36.8185C247.087 35.1763 246.633 33.2938 246.633 31.1742C246.633 29.0546 247.087 27.1652 247.997 25.5095C248.908 23.8538 250.178 22.5638 251.807 21.6394C253.439 20.7151 255.297 20.2546 257.39 20.2546C259.208 20.2546 260.847 20.5322 262.303 21.0909C263.755 21.6462 264.971 22.4554 265.949 23.5152L263.871 26.1224C262.157 24.4633 260.105 23.6371 257.715 23.6371V23.6303Z" fill="#00236E"/>
<path d="M280.48 23.8335C279.406 23.5085 278.38 23.346 277.402 23.346C276.261 23.346 275.343 23.5559 274.649 23.9757C273.955 24.399 273.61 25.0423 273.61 25.9125C273.61 26.7827 273.996 27.4395 274.771 27.8899C275.546 28.3368 276.721 28.7939 278.296 29.2544C279.789 29.6878 281.015 30.1246 281.963 30.558C282.914 30.9914 283.723 31.6313 284.387 32.4744C285.054 33.3175 285.386 34.4315 285.386 35.8163C285.386 37.8547 284.617 39.402 283.083 40.4618C281.546 41.5216 279.64 42.0532 277.358 42.0532C275.753 42.0532 274.199 41.7959 272.692 41.2778C271.182 40.7632 269.912 40.0284 268.883 39.077L270.308 36.3039C271.206 37.1199 272.313 37.77 273.63 38.261C274.947 38.7485 276.23 38.9957 277.483 38.9957C278.736 38.9957 279.738 38.7655 280.5 38.3016C281.258 37.8411 281.641 37.1335 281.641 36.182C281.641 35.2306 281.238 34.4687 280.439 33.9812C279.636 33.4936 278.421 33.0026 276.792 32.515C275.35 32.1087 274.178 31.6923 273.268 31.2724C272.357 30.8526 271.581 30.2329 270.945 29.4169C270.305 28.6009 269.987 27.5411 269.987 26.2375C269.987 24.2263 270.721 22.7196 272.187 21.7139C273.654 20.7083 275.489 20.2072 277.69 20.2072C278.993 20.2072 280.276 20.3901 281.543 20.7591C282.806 21.1248 283.899 21.6225 284.824 22.2455L283.439 25.1405C282.542 24.5988 281.556 24.162 280.483 23.8369L280.48 23.8335Z" fill="#00236E"/>
<path d="M28.5331 5.65109C26.4576 7.91966 24.5039 10.0562 22.5434 12.1961C20.2715 9.64987 15.8089 8.94898 12.8123 10.3203C9.90381 11.4173 9.47718 15.3653 12.1622 16.679C13.9026 17.4307 15.6836 18.0977 17.4612 18.7648C24.1314 20.4747 29.4812 24.0333 28.462 31.3367C27.0501 45.0768 8.50543 45.7472 0 38.1492C2.16022 35.7723 4.18161 33.5477 6.25379 31.2724C12.3349 39.5205 26.8436 32.0613 16.1881 26.7589C9.90042 24.5852 0.799077 22.557 1.38145 14.1396C2.03155 0.396137 19.8076 -1.43565 28.5331 5.65109Z" fill="#00236E"/>
<path d="M61.6227 15.0335C58.0302 19.1102 54.5089 23.1056 50.9605 27.1315C54.5969 32.0343 58.2097 36.91 61.9207 41.911C58.6397 41.911 55.4502 41.8975 52.1794 41.9212C51.6681 41.9246 51.3668 41.7756 51.079 41.3388C48.0723 37.0861 45.5261 32.4033 42.2417 28.4046V41.867H33.9902V0.0203552H42.1943V25.4182C42.2553 25.4419 42.3128 25.469 42.3738 25.4927C45.6717 22.1778 48.3059 17.8439 51.9085 14.9929C55.1522 15.0132 58.3892 14.8778 61.6261 15.0335H61.6227Z" fill="#00236E"/>
<path d="M87.7269 0.0203552V41.8907H79.4551V0.0203552H87.7269Z" fill="#00236E"/>
<path d="M102.156 41.8974H93.9082V0H102.156V41.8974Z" fill="#00236E"/>
<path d="M64.9902 14.9862H73.2045V41.8907H64.9902V14.9862Z" fill="#00236E"/>
<path d="M73.9424 6.63639C73.9187 13.0019 64.2553 12.941 64.2892 6.59575C64.3264 0.304707 73.939 0.311479 73.9424 6.63639Z" fill="#00236E"/>
</svg>
