<?xml version="1.0" encoding="UTF-8"?>
<svg id="Layer_1" xmlns="http://www.w3.org/2000/svg" version="1.1" viewBox="0 0 532 270">
  <!-- Generator: Adobe Illustrator 29.0.0, SVG Export Plug-In . SVG Version: 2.1.0 Build 186)  -->
  <defs>
    <style>
      .st0 {
        fill: #ff9700;
      }

      .st1 {
        fill: #e8e6e7;
      }

      .st2 {
        fill: #bc0000;
      }

      .st3 {
        fill: #565656;
      }

      .st4 {
        fill: #4ea000;
      }

      .st5 {
        fill: #ffec00;
      }
    </style>
  </defs>
  <g id="gauge-background">
    <path class="st1" d="M513.1,270.2h-33.5c0-117.8-95.9-213.7-213.7-213.7S52.3,152.4,52.3,270.2H18.9c0-136.3,110.9-247.1,247.1-247.1s247.1,110.9,247.1,247.1Z"/>
    <path class="st0" d="M170,38.3l-5.3-12.9c-32.3,13.4-61.4,33.1-85.8,57.5l9.8,9.8c23.1-23.1,50.7-41.7,81.3-54.5h0Z"/>
    <path class="st2" d="M88.7,92.8l-9.8-9.8c-24.4,24.4-44,53.5-57.5,85.8l12.9,5.3c12.8-30.6,31.4-58.2,54.5-81.3h0Z"/>
    <path class="st2" d="M34.2,174.1l-12.9-5.3C8.3,200,1.1,234.2,1.1,270.1h13.9c0-34,6.8-66.4,19.1-96h.1Z"/>
    <path class="st4" d="M516.9,270.1h13.9c0-35.9-7.2-70.1-20.2-101.4l-12.9,5.3c12.3,29.6,19.1,62,19.1,96h0Z"/>
    <path class="st0" d="M266,19.2h0V5.2h0c-35.9,0-70.1,7.2-101.4,20.2l5.3,12.9c29.6-12.3,62-19.1,96-19.1h0Z"/>
    <path class="st5" d="M443.3,92.8l9.9-9.8c-24.4-24.4-53.5-44-85.8-57.5l-5.3,12.9c30.6,12.7,58.2,31.4,81.3,54.5h0Z"/>
    <path class="st4" d="M497.8,174.1l12.9-5.3c-13.4-32.3-33.1-61.4-57.5-85.8l-9.9,9.8c23.1,23.1,41.7,50.7,54.5,81.3Z"/>
    <path class="st5" d="M362,38.3l5.3-12.9c-31.2-13-65.5-20.2-101.3-20.2v13.9c34,0,66.4,6.8,96,19.1h0Z"/>
  </g>
  <g id="gauge-labels">
    <path d="M268.7,35.8c0,2.4-.9,3.7-2.5,3.7s-2.3-1.3-2.3-3.6,1-3.7,2.5-3.7,2.3,1.3,2.3,3.6ZM264.9,35.9c0,1.8.6,2.9,1.4,2.9s1.4-1.1,1.4-2.9-.5-2.9-1.4-2.9-1.4,1-1.4,2.9Z"/>
    <g>
      <path d="M431.4,100.3h-2.7l-.3,1.8h.6c.5,0,1.1,0,1.5.4.5.3,1,.9,1,1.8,0,1.4-1.1,2.4-2.6,2.4s-1.4-.2-1.8-.4l.2-.7c.3.2.9.4,1.5.4s1.7-.6,1.7-1.5-.6-1.6-2-1.6-.7,0-1,0l.5-3.4h3.4v.8h0Z"/>
      <path d="M437.4,102.9c0,2.4-.9,3.7-2.5,3.7s-2.3-1.3-2.3-3.6,1-3.7,2.5-3.7,2.3,1.3,2.3,3.6ZM433.6,103c0,1.8.6,2.9,1.4,2.9s1.4-1.1,1.4-2.9-.5-2.9-1.4-2.9-1.4,1-1.4,2.9Z"/>
    </g>
    <g>
      <path d="M92,103.2v.7h-2.7v-.7h2.7Z"/>
      <path d="M97,100.3h-2.7l-.3,1.8h.6c.5,0,1.1,0,1.5.4.6.3,1,.9,1,1.8,0,1.4-1.1,2.4-2.6,2.4s-1.4-.2-1.8-.4l.2-.7c.3.2.9.4,1.5.4s1.7-.6,1.7-1.5-.6-1.6-2-1.6-.7,0-1,0l.5-3.4h3.4v.8h0Z"/>
      <path d="M103.1,102.9c0,2.4-.9,3.7-2.4,3.7s-2.3-1.3-2.3-3.6,1-3.7,2.4-3.7,2.3,1.3,2.3,3.6ZM99.2,103c0,1.8.6,2.9,1.4,2.9s1.4-1.1,1.4-2.9-.4-2.9-1.4-2.9-1.4,1-1.4,2.9Z"/>
    </g>
    <g>
      <path d="M492.9,263.9h0l-1.2.7-.2-.7,1.5-.8h.8v7.1h-.9v-6.2h0Z"/>
      <path d="M501.1,266.5c0,2.4-.9,3.7-2.5,3.7s-2.3-1.3-2.3-3.6,1-3.7,2.5-3.7,2.3,1.3,2.3,3.6ZM497.3,266.6c0,1.8.6,2.9,1.4,2.9s1.4-1.1,1.4-2.9-.5-2.9-1.4-2.9-1.4,1-1.4,2.9Z"/>
      <path d="M506.7,266.5c0,2.4-.9,3.7-2.5,3.7s-2.3-1.3-2.3-3.6,1-3.7,2.5-3.7,2.3,1.3,2.3,3.6ZM502.9,266.6c0,1.8.6,2.9,1.4,2.9s1.4-1.1,1.4-2.9-.5-2.9-1.4-2.9-1.4,1-1.4,2.9Z"/>
    </g>
    <g>
      <path d="M27.3,266.8v.7h-2.7v-.7h2.7Z"/>
      <path d="M30.2,263.9h0l-1.2.7-.2-.7,1.5-.8h.8v7.1h-.9v-6.2h0Z"/>
      <path d="M38.4,266.5c0,2.4-.9,3.7-2.5,3.7s-2.3-1.3-2.3-3.6,1-3.7,2.5-3.7,2.3,1.3,2.3,3.6ZM34.5,266.6c0,1.8.6,2.9,1.4,2.9s1.4-1.1,1.4-2.9-.5-2.9-1.4-2.9-1.4,1-1.4,2.9Z"/>
      <path d="M43.9,266.5c0,2.4-.9,3.7-2.5,3.7s-2.3-1.3-2.3-3.6,1-3.7,2.5-3.7,2.3,1.3,2.3,3.6ZM40.1,266.6c0,1.8.6,2.9,1.4,2.9s1.4-1.1,1.4-2.9-.5-2.9-1.4-2.9-1.4,1-1.4,2.9Z"/>
    </g>
    <g>
      <path d="M165.6,85.5c.5,0,1.2-.2,2-.2s1.8.2,2.3.7c.4.4.7,1,.7,1.7s-.2,1.3-.6,1.7c-.6.6-1.5.9-2.5.9s-.6,0-.8,0v3.2h-1v-8h0ZM166.6,89.4h.9c1.3,0,2-.6,2-1.7s-.8-1.6-1.9-1.6-.8,0-1,0c0,0,0,3.3,0,3.3Z"/>
      <path d="M176.9,90.5c0,2.1-1.5,3.1-2.9,3.1s-2.8-1.2-2.8-3,1.3-3.1,2.9-3.1,2.8,1.2,2.8,3ZM172.3,90.6c0,1.3.7,2.2,1.8,2.2s1.8-.9,1.8-2.3-.5-2.2-1.7-2.2-1.8,1.2-1.8,2.3h-.1Z"/>
      <path d="M182.3,93.3c-.3,0-.9.3-1.7.3-1.8,0-2.9-1.2-2.9-3s1.2-3.1,3.1-3.1,1.2.2,1.5.3l-.2.8c-.3,0-.6-.3-1.2-.3-1.3,0-2.1,1-2.1,2.2s.9,2.2,2,2.2,1-.2,1.3-.3l.2.8h0Z"/>
      <path d="M188.8,90.5c0,2.1-1.5,3.1-2.9,3.1s-2.8-1.2-2.8-3,1.3-3.1,2.9-3.1,2.8,1.2,2.8,3ZM184.1,90.6c0,1.3.7,2.2,1.8,2.2s1.8-.9,1.8-2.3-.5-2.2-1.7-2.2-1.8,1.2-1.8,2.3h-.1Z"/>
      <path d="M192.7,93.5v-5h-.8v-.8h.8v-.3c0-.8.2-1.6.7-2,.4-.4.9-.5,1.4-.5s.7,0,.9.2v.8h-.8c-.9,0-1.1.8-1.1,1.7v.3h1.4v.8h-1.4v5h-1.1v-.2Z"/>
      <path d="M199.4,93.5v-.7h-.1c-.3.5-.9.9-1.8.9s-1.8-.8-1.8-1.7c0-1.4,1.2-2.2,3.5-2.2h0c0-.6-.1-1.5-1.3-1.5s-1.1.2-1.5.4l-.2-.7c.5-.3,1.2-.5,1.9-.5,1.8,0,2.2,1.2,2.2,2.4v3.6h-1,.1ZM199.2,90.5c-1.2,0-2.5.2-2.5,1.3s.5,1,1,1,1.2-.5,1.4-1v-1.3h.1Z"/>
      <path d="M202.2,87.7l1.1,3.3c.2.5.3,1,.5,1.5h0c.1-.5.3-1,.5-1.5l1.1-3.3h1.1l-2.3,5.8h-1l-2.2-5.8h1.2,0Z"/>
      <path d="M212.7,90.5c0,2.1-1.5,3.1-2.9,3.1s-2.8-1.2-2.8-3,1.3-3.1,2.9-3.1,2.8,1.2,2.8,3ZM208.1,90.6c0,1.3.7,2.2,1.8,2.2s1.8-.9,1.8-2.3-.5-2.2-1.7-2.2-1.8,1.2-1.8,2.3h-.1Z"/>
      <path d="M214.1,89.5v-1.8h.9v1.1h0c.3-.8.9-1.3,1.6-1.3s.2,0,.3,0v1h-.4c-.7,0-1.3.6-1.4,1.4v3.6h-1v-4h0Z"/>
      <path d="M221.1,93.5v-.7h-.1c-.3.5-.9.9-1.8.9s-1.8-.8-1.8-1.7c0-1.4,1.2-2.2,3.5-2.2h0c0-.6-.1-1.5-1.3-1.5s-1.1.2-1.5.4l-.2-.7c.5-.3,1.2-.5,1.9-.5,1.8,0,2.2,1.2,2.2,2.4v3.6h-1,.1ZM221,90.5c-1.2,0-2.5.2-2.5,1.3s.5,1,1,1,1.2-.5,1.4-1v-1.3h.1Z"/>
      <path d="M223.7,93.5v-8.5h1v3.6h0c.4-.6,1-1.1,2-1.1s2.5,1.2,2.4,3c0,2.1-1.3,3.1-2.6,3.1s-1.5-.3-1.9-1.1h0v1h-1,.1ZM224.8,91.1v.4c.2.7.8,1.2,1.6,1.2s1.8-.9,1.8-2.2-.6-2.2-1.7-2.2-1.4.5-1.6,1.3v1.4h-.1Z"/>
      <path d="M230.5,85h1.1v8.5h-1.1v-8.5Z"/>
      <path d="M234,90.8c0,1.4.9,2,2,2s1.2,0,1.6-.3l.2.8c-.4.2-1,.4-1.9.4-1.8,0-2.9-1.2-2.9-2.9s1-3.1,2.7-3.1,2.4,1.7,2.4,2.7,0,.4,0,.5h-4.1ZM237.1,90c0-.7-.3-1.7-1.5-1.7s-1.5,1-1.6,1.7h3.1Z"/>
    </g>
    <g>
      <path d="M64.8,201.9c.6,0,1.4-.2,2.2-.2,1.5,0,2.6.3,3.3,1,.7.7,1.1,1.6,1.1,2.9s-.4,2.4-1.2,3.1c-.8.8-2,1.2-3.6,1.2h-1.9v-8h0ZM65.9,209h1.1c2.2,0,3.4-1.2,3.4-3.4s-1.1-3.1-3.3-3.1-.9,0-1.2.1v6.4Z"/>
      <path d="M73.4,207.1c0,1.4.9,2,2,2s1.2-.1,1.6-.3l.2.8c-.4.2-1,.4-1.9.4-1.8,0-2.9-1.2-2.9-2.9s1-3.1,2.7-3.1,2.4,1.7,2.4,2.7,0,.4,0,.5h-4.1,0ZM76.5,206.4c0-.7-.3-1.7-1.5-1.7s-1.5,1-1.6,1.7h3.1Z"/>
      <path d="M78.7,208.8c.3.2.9.4,1.4.4.8,0,1.1-.4,1.1-.9s-.3-.8-1.1-1.1c-1-.4-1.5-.9-1.5-1.6s.8-1.7,2-1.7,1.1.2,1.4.4l-.3.8c-.2-.1-.6-.3-1.2-.3s-1,.4-1,.8.3.7,1.1,1c1,.4,1.5.9,1.5,1.8s-.8,1.7-2.2,1.7-1.2-.2-1.6-.4l.3-.8h0Z"/>
      <path d="M83.7,209.8v-5h-.8v-.8h.8v-.3c0-.8.2-1.6.7-2,.4-.4.9-.5,1.4-.5s.7,0,.9.2v.8c-.3,0-.5-.1-.8-.1-.9,0-1.1.8-1.1,1.7v.3h1.4v.8h-1.4v5h-1.1Z"/>
      <path d="M90.3,209.8v-.7h0c-.3.5-.9.9-1.8.9s-1.8-.8-1.8-1.7c0-1.4,1.2-2.2,3.5-2.2h0c0-.6,0-1.5-1.3-1.5s-1.1.2-1.5.4l-.2-.7c.5-.3,1.2-.5,1.9-.5,1.8,0,2.2,1.2,2.2,2.4v3.6h-1,0,0ZM90.2,206.9c-1.2,0-2.5.2-2.5,1.3s.5,1,1,1,1.2-.5,1.4-1v-1.3h0Z"/>
      <path d="M93.2,204l1.1,3.3c.2.5.3,1,.5,1.5h0c0-.5.3-1,.5-1.5l1.1-3.3h1.1l-2.3,5.8h-1l-2.2-5.8h1.2Z"/>
      <path d="M103.7,206.9c0,2.1-1.5,3.1-2.9,3.1s-2.8-1.2-2.8-3,1.3-3.1,2.9-3.1,2.8,1.2,2.8,3ZM99.1,206.9c0,1.3.7,2.2,1.8,2.2s1.8-.9,1.8-2.3-.5-2.2-1.7-2.2-1.8,1.2-1.8,2.3h-.1Z"/>
      <path d="M105,205.8v-1.8h.9v1.1h0c.3-.8.9-1.3,1.6-1.3s.2,0,.3,0v1h-.4c-.7,0-1.3.6-1.4,1.4v3.6h-1v-4Z"/>
      <path d="M112.1,209.8v-.7h0c-.3.5-.9.9-1.8.9s-1.8-.8-1.8-1.7c0-1.4,1.2-2.2,3.5-2.2h0c0-.6,0-1.5-1.3-1.5s-1.1.2-1.5.4l-.2-.7c.5-.3,1.2-.5,1.9-.5,1.8,0,2.2,1.2,2.2,2.4v3.6h-1,0,0ZM111.9,206.9c-1.2,0-2.5.2-2.5,1.3s.5,1,1,1,1.2-.5,1.4-1v-1.3h0Z"/>
      <path d="M114.6,209.8v-8.5h1v3.6h0c.4-.6,1-1.1,2-1.1s2.5,1.2,2.4,3c0,2.1-1.3,3.1-2.6,3.1s-1.5-.3-1.9-1.1h0v1h-1,0ZM115.7,207.5v.4c.2.7.8,1.2,1.6,1.2s1.8-.9,1.8-2.2-.6-2.2-1.7-2.2-1.4.5-1.6,1.3v1.4h-.1Z"/>
      <path d="M121.5,201.3h1.1v8.5h-1.1v-8.5Z"/>
      <path d="M124.9,207.1c0,1.4.9,2,2,2s1.2-.1,1.6-.3l.2.8c-.4.2-1,.4-1.9.4-1.8,0-2.9-1.2-2.9-2.9s1-3.1,2.7-3.1,2.4,1.7,2.4,2.7,0,.4,0,.5h-4.1,0ZM128,206.4c0-.7-.3-1.7-1.5-1.7s-1.5,1-1.6,1.7h3.1Z"/>
    </g>
    <g>
      <path d="M313.7,85.4h4.4v.9h-3.3v2.7h3.1v.9h-3.1v3.7h-1v-8.1h-.1Z"/>
      <path d="M322.2,93.5v-.7h-.1c-.3.5-.9.9-1.8.9s-1.8-.8-1.8-1.7c0-1.4,1.2-2.2,3.5-2.2h0c0-.6-.1-1.5-1.3-1.5s-1.1.2-1.5.4l-.2-.7c.5-.3,1.2-.5,1.9-.5,1.8,0,2.2,1.2,2.2,2.4v3.6h-1,0ZM322.1,90.5c-1.2,0-2.5.2-2.5,1.3s.5,1,1,1,1.2-.5,1.4-1v-1.3h.1Z"/>
      <path d="M325.1,87.7l1.1,3.3c.2.5.3,1,.5,1.5h0c.1-.5.3-1,.5-1.5l1.1-3.3h1.1l-2.3,5.8h-1l-2.2-5.8h1.2,0Z"/>
      <path d="M335.6,90.5c0,2.1-1.5,3.1-2.9,3.1s-2.8-1.2-2.8-3,1.3-3.1,2.9-3.1,2.8,1.2,2.8,3ZM331,90.6c0,1.3.7,2.2,1.8,2.2s1.8-.9,1.8-2.3-.5-2.2-1.7-2.2-1.8,1.2-1.8,2.3h0Z"/>
      <path d="M336.9,89.5v-1.8h.9v1.1h0c.3-.8.9-1.3,1.6-1.3s.2,0,.3,0v1h-.4c-.7,0-1.3.6-1.4,1.4v3.6h-1s0-4,0-4Z"/>
      <path d="M344,93.5v-.7h-.1c-.3.5-.9.9-1.8.9s-1.8-.8-1.8-1.7c0-1.4,1.2-2.2,3.5-2.2h0c0-.6-.1-1.5-1.3-1.5s-1.1.2-1.5.4l-.2-.7c.5-.3,1.2-.5,1.9-.5,1.8,0,2.2,1.2,2.2,2.4v3.6h-1,0ZM343.9,90.5c-1.2,0-2.5.2-2.5,1.3s.5,1,1,1,1.2-.5,1.4-1v-1.3h.1Z"/>
      <path d="M346.5,93.5v-8.5h1v3.6h0c.4-.6,1-1.1,2-1.1s2.5,1.2,2.4,3c0,2.1-1.3,3.1-2.6,3.1s-1.5-.3-1.9-1.1h0v1h-1,.1ZM347.6,91.1v.4c.2.7.8,1.2,1.6,1.2s1.8-.9,1.8-2.2-.6-2.2-1.7-2.2-1.4.5-1.6,1.3v1.4h0Z"/>
      <path d="M353.4,85h1.1v8.5h-1.1v-8.5Z"/>
      <path d="M356.8,90.8c0,1.4.9,2,2,2s1.2,0,1.6-.3l.2.8c-.4.2-1,.4-1.9.4-1.8,0-2.9-1.2-2.9-2.9s1-3.1,2.7-3.1,2.4,1.7,2.4,2.7,0,.4,0,.5h-4.1ZM359.9,90c0-.7-.3-1.7-1.5-1.7s-1.5,1-1.6,1.7h3.1Z"/>
    </g>
    <g>
      <path d="M408,206.3c0-1.1-.1-2.5-.1-3.5h0c-.3.9-.6,2-1,3.1l-1.4,3.9h-.8l-1.3-3.8c-.4-1.1-.7-2.2-.9-3.1h0c0,1,0,2.4-.2,3.6l-.2,3.5h-1l.6-8.1h1.3l1.4,3.9c.3,1,.6,1.9.8,2.7h0c.2-.8.5-1.7.9-2.7l1.4-3.9h1.3l.5,8.1h-1l-.2-3.5v-.2h0Z"/>
      <path d="M415.7,208.3v1.6h-.9v-.9h0c-.3.5-.9,1.1-1.9,1.1s-2-.5-2-2.5v-3.4h1.1v3.2c0,1.1.3,1.8,1.3,1.8s1.2-.5,1.4-1v-4.1h1.1v4.2h-.1Z"/>
      <path d="M417.8,204l1.3,3.4c.1.4.3.8.4,1.2h0c.1-.3.2-.8.4-1.2l1.2-3.4h1.1l-1.6,4.1c-.8,2-1.3,3-2,3.6-.5.5-1,.6-1.3.7l-.3-.9c.3,0,.6-.3.9-.5s.6-.6.9-1.2v-.6l-2.1-5.3h1.2-.1Z"/>
      <path d="M425.8,209.8v-5h-.8v-.8h.8v-.3c0-.8.2-1.6.7-2,.4-.4.9-.5,1.4-.5s.7,0,.9.2v.8c-.3,0-.5-.1-.8-.1-.9,0-1.1.8-1.1,1.7v.3h1.4v.8h-1.4v5h-1.1Z"/>
      <path d="M432.4,209.8v-.7h-.1c-.3.5-.9.9-1.8.9s-1.8-.8-1.8-1.7c0-1.4,1.2-2.2,3.5-2.2h0c0-.6-.1-1.5-1.3-1.5s-1.1.2-1.5.4l-.2-.7c.5-.3,1.2-.5,1.9-.5,1.8,0,2.2,1.2,2.2,2.4v3.6h-1,0ZM432.2,206.9c-1.2,0-2.5.2-2.5,1.3s.5,1,1,1,1.2-.5,1.4-1v-1.3h.1Z"/>
      <path d="M435.3,204l1.1,3.3c.2.5.3,1,.5,1.5h0c.1-.5.3-1,.5-1.5l1.1-3.3h1.1l-2.3,5.8h-1l-2.2-5.8h1.2,0Z"/>
      <path d="M445.8,206.9c0,2.1-1.5,3.1-2.9,3.1s-2.8-1.2-2.8-3,1.3-3.1,2.9-3.1,2.8,1.2,2.8,3ZM441.2,206.9c0,1.3.7,2.2,1.8,2.2s1.8-.9,1.8-2.3-.5-2.2-1.7-2.2-1.8,1.2-1.8,2.3h0Z"/>
      <path d="M447.1,205.8v-1.8h.9v1.1h0c.3-.8.9-1.3,1.6-1.3s.2,0,.3,0v1h-.4c-.7,0-1.3.6-1.4,1.4v3.6h-1v-4Z"/>
      <path d="M454.2,209.8v-.7h-.1c-.3.5-.9.9-1.8.9s-1.8-.8-1.8-1.7c0-1.4,1.2-2.2,3.5-2.2h0c0-.6-.1-1.5-1.3-1.5s-1.1.2-1.5.4l-.2-.7c.5-.3,1.2-.5,1.9-.5,1.8,0,2.2,1.2,2.2,2.4v3.6h-1,0ZM454,206.9c-1.2,0-2.5.2-2.5,1.3s.5,1,1,1,1.2-.5,1.4-1v-1.3h.1Z"/>
      <path d="M456.7,209.8v-8.5h1v3.6h0c.4-.6,1-1.1,2-1.1s2.5,1.2,2.4,3c0,2.1-1.3,3.1-2.6,3.1s-1.5-.3-1.9-1.1h0v1h-1,.1ZM457.8,207.5v.4c.2.7.8,1.2,1.6,1.2s1.8-.9,1.8-2.2-.6-2.2-1.7-2.2-1.4.5-1.6,1.3v1.4h0Z"/>
      <path d="M463.6,201.3h1.1v8.5h-1.1v-8.5Z"/>
      <path d="M467,207.1c0,1.4.9,2,2,2s1.2-.1,1.6-.3l.2.8c-.4.2-1,.4-1.9.4-1.8,0-2.9-1.2-2.9-2.9s1-3.1,2.7-3.1,2.4,1.7,2.4,2.7,0,.4,0,.5h-4.1ZM470.1,206.4c0-.7-.3-1.7-1.5-1.7s-1.5,1-1.6,1.7h3.1Z"/>
    </g>
  </g>
  <g id="gauge-needle">
    <polygon class="st3" points="266 13.2 256.8 270.2 275.2 270.2 266 13.2"/>
  </g>
</svg>