<?xml version="1.0" encoding="utf-8"?>
<!-- Generator: Adobe Illustrator 27.8.0, SVG Export Plug-In . SVG Version: 6.00 Build 0)  -->
<svg version="1.1" xmlns="http://www.w3.org/2000/svg" xmlns:xlink="http://www.w3.org/1999/xlink" x="0px" y="0px"
	 viewBox="0 0 532 270" style="enable-background:new 0 0 532 270;" xml:space="preserve">
<style type="text/css">
	.st0{fill:#E8E6E7;}
	.st1{fill:#BC0000;}
	.st2{fill:#4EA000;}
	.st3{fill:#FFEC00;}
	.st4{fill:none;stroke:#000000;stroke-width:0.5;stroke-linecap:round;stroke-miterlimit:10;}
	.st5{fill:none;stroke:#FFFFFF;stroke-width:2;stroke-linecap:round;stroke-miterlimit:10;}
	.st6{fill:#565656;}
</style>
<g id="gauge-background">
	<g>
		<path class="st0" d="M513.13,270.2h-33.45c0-117.82-95.86-213.68-213.68-213.68c-117.82,0-213.68,95.86-213.68,213.68H18.87
			C18.87,133.93,129.73,23.07,266,23.07C402.27,23.07,513.13,133.93,513.13,270.2z"/>
	</g>
</g>
<g id="gauge-segments">
	<path class="st1" d="M169.98,38.29l-5.33-12.87c-32.33,13.44-61.45,33.1-85.84,57.49l9.85,9.85
		C111.76,69.64,139.35,51.02,169.98,38.29z"/>
	<path class="st1" d="M88.65,92.75l-9.85-9.85c-24.39,24.39-44.05,53.51-57.49,85.84l12.87,5.33
		C46.93,143.45,65.55,115.86,88.65,92.75z"/>
	<path class="st1" d="M34.19,174.08l-12.87-5.33C8.33,199.98,1.14,234.21,1.14,270.1h13.94C15.08,236.1,21.89,203.67,34.19,174.08z"
		/>
	<path class="st2" d="M516.92,270.1h13.94c0-35.88-7.19-70.11-20.17-101.35l-12.87,5.33C510.11,203.67,516.92,236.1,516.92,270.1z"
		/>
	<path class="st3" d="M266,19.17C266,19.17,266,19.17,266,19.17l0-13.94c0,0,0,0,0,0c-35.88,0-70.11,7.19-101.35,20.17l5.33,12.87
		C199.57,25.98,232,19.17,266,19.17z"/>
	<path class="st2" d="M443.34,92.75l9.85-9.85c-24.39-24.39-53.51-44.05-85.84-57.49l-5.33,12.87
		C392.65,51.02,420.24,69.64,443.34,92.75z"/>
	<path class="st2" d="M497.81,174.08l12.87-5.33c-13.44-32.33-33.1-61.45-57.49-85.84l-9.85,9.85
		C466.45,115.86,485.07,143.45,497.81,174.08z"/>
	<path class="st3" d="M362.02,38.29l5.33-12.87C336.11,12.43,301.88,5.24,266,5.24v13.94C299.99,19.18,332.42,25.98,362.02,38.29z"
		/>
	<line class="st4" x1="515.02" y1="250.5" x2="531.62" y2="249.19"/>
	<line class="st4" x1="512.72" y1="231.02" x2="529.17" y2="228.41"/>
	<line class="st4" x1="508.89" y1="211.78" x2="525.08" y2="207.9"/>
	<line class="st4" x1="503.57" y1="192.91" x2="519.41" y2="187.76"/>
	<line class="st5" x1="496.78" y1="174.5" x2="512.16" y2="168.13"/>
	<line class="st4" x1="488.57" y1="156.69" x2="503.41" y2="149.13"/>
	<line class="st4" x1="478.98" y1="139.58" x2="493.18" y2="130.88"/>
	<line class="st4" x1="468.09" y1="123.27" x2="481.56" y2="113.48"/>
	<line class="st4" x1="455.94" y1="107.87" x2="468.61" y2="97.05"/>
	<line class="st5" x1="442.63" y1="93.47" x2="454.41" y2="81.69"/>
	<line class="st4" x1="428.23" y1="80.15" x2="439.04" y2="67.49"/>
	<line class="st4" x1="412.82" y1="68.01" x2="422.61" y2="54.54"/>
	<line class="st4" x1="396.52" y1="57.11" x2="405.22" y2="42.91"/>
	<line class="st4" x1="379.4" y1="47.53" x2="386.96" y2="32.69"/>
	<line class="st5" x1="361.59" y1="39.32" x2="367.96" y2="23.93"/>
	<line class="st4" x1="343.19" y1="32.53" x2="348.34" y2="16.69"/>
	<line class="st4" x1="324.31" y1="27.2" x2="328.2" y2="11.01"/>
	<line class="st4" x1="305.08" y1="23.38" x2="307.68" y2="6.93"/>
	<line class="st4" x1="285.6" y1="21.07" x2="286.91" y2="4.47"/>
	<line class="st5" x1="266" y1="20.3" x2="266" y2="3.65"/>
	<line class="st4" x1="246.4" y1="21.07" x2="245.09" y2="4.47"/>
	<line class="st4" x1="226.92" y1="23.38" x2="224.32" y2="6.93"/>
	<line class="st4" x1="207.69" y1="27.2" x2="203.8" y2="11.01"/>
	<line class="st4" x1="188.81" y1="32.53" x2="183.66" y2="16.69"/>
	<line class="st5" x1="170.41" y1="39.32" x2="164.04" y2="23.93"/>
	<line class="st4" x1="152.6" y1="47.53" x2="145.04" y2="32.69"/>
	<line class="st4" x1="135.48" y1="57.11" x2="126.78" y2="42.91"/>
	<line class="st4" x1="119.18" y1="68.01" x2="109.39" y2="54.54"/>
	<line class="st4" x1="103.77" y1="80.15" x2="92.96" y2="67.49"/>
	<line class="st5" x1="89.37" y1="93.47" x2="77.59" y2="81.69"/>
	<line class="st4" x1="76.06" y1="107.87" x2="63.39" y2="97.05"/>
	<line class="st4" x1="63.91" y1="123.27" x2="50.44" y2="113.48"/>
	<line class="st4" x1="53.02" y1="139.58" x2="38.82" y2="130.88"/>
	<line class="st4" x1="43.43" y1="156.69" x2="28.59" y2="149.13"/>
	<line class="st5" x1="35.22" y1="174.5" x2="19.84" y2="168.13"/>
	<line class="st4" x1="28.43" y1="192.91" x2="12.59" y2="187.76"/>
	<line class="st4" x1="23.11" y1="211.78" x2="6.92" y2="207.9"/>
	<line class="st4" x1="19.28" y1="231.02" x2="2.83" y2="228.41"/>
	<line class="st4" x1="16.98" y1="250.5" x2="0.38" y2="249.19"/>
</g>
<g id="gauge-labels">
	<g>
		<path d="M268.69,35.78c0,2.4-0.89,3.73-2.45,3.73c-1.38,0-2.31-1.29-2.34-3.63c0-2.37,1.02-3.67,2.45-3.67
			C267.84,32.21,268.69,33.54,268.69,35.78z M264.86,35.89c0,1.84,0.56,2.88,1.43,2.88c0.98,0,1.44-1.14,1.44-2.94
			c0-1.74-0.45-2.88-1.43-2.88C265.47,32.95,264.86,33.97,264.86,35.89z"/>
	</g>
	<g>
		<path d="M353.1,58.07v-0.59l0.75-0.73c1.8-1.72,2.62-2.63,2.63-3.69c0-0.72-0.35-1.38-1.4-1.38c-0.64,0-1.17,0.33-1.5,0.6
			l-0.3-0.67c0.49-0.41,1.18-0.72,2-0.72c1.52,0,2.16,1.04,2.16,2.05c0,1.3-0.94,2.36-2.43,3.79l-0.56,0.52v0.02h3.17v0.79H353.1z"
			/>
		<path d="M362.89,51.81h-2.69l-0.27,1.81c0.16-0.02,0.32-0.04,0.58-0.04c0.54,0,1.09,0.12,1.52,0.38c0.55,0.31,1.01,0.92,1.01,1.81
			c0,1.38-1.1,2.41-2.63,2.41c-0.77,0-1.42-0.22-1.76-0.43l0.24-0.73c0.29,0.17,0.87,0.39,1.51,0.39c0.9,0,1.67-0.59,1.67-1.53
			c-0.01-0.91-0.62-1.56-2.03-1.56c-0.4,0-0.72,0.04-0.98,0.08l0.46-3.39h3.38V51.81z"/>
	</g>
	<g>
		<path d="M168.23,54.78v0.71h-2.68v-0.71H168.23z"/>
		<path d="M169.04,58.07v-0.59l0.75-0.73c1.8-1.72,2.62-2.63,2.63-3.69c0-0.72-0.35-1.38-1.4-1.38c-0.64,0-1.17,0.33-1.5,0.6
			l-0.3-0.67c0.49-0.41,1.18-0.72,2-0.72c1.52,0,2.16,1.04,2.16,2.05c0,1.3-0.94,2.36-2.43,3.79l-0.56,0.52v0.02h3.17v0.79H169.04z"
			/>
		<path d="M178.83,51.81h-2.69l-0.27,1.81c0.16-0.02,0.32-0.04,0.58-0.04c0.54,0,1.09,0.12,1.52,0.38c0.55,0.31,1.01,0.92,1.01,1.81
			c0,1.38-1.1,2.41-2.63,2.41c-0.77,0-1.42-0.22-1.76-0.43l0.24-0.73c0.29,0.17,0.87,0.39,1.51,0.39c0.9,0,1.67-0.59,1.67-1.53
			c-0.01-0.91-0.62-1.56-2.03-1.56c-0.4,0-0.72,0.04-0.98,0.08l0.46-3.39h3.38V51.81z"/>
	</g>
	<g>
		<path d="M431.38,100.26h-2.69l-0.27,1.81c0.16-0.02,0.31-0.04,0.58-0.04c0.54,0,1.09,0.12,1.52,0.38
			c0.55,0.31,1.01,0.92,1.01,1.81c0,1.38-1.1,2.41-2.63,2.41c-0.77,0-1.42-0.22-1.76-0.43l0.24-0.73c0.29,0.17,0.87,0.39,1.51,0.39
			c0.9,0,1.67-0.59,1.67-1.53c-0.01-0.91-0.62-1.56-2.03-1.56c-0.4,0-0.72,0.04-0.98,0.08l0.46-3.39h3.38V100.26z"/>
		<path d="M437.44,102.91c0,2.4-0.89,3.73-2.45,3.73c-1.38,0-2.31-1.29-2.33-3.63c0-2.37,1.02-3.67,2.45-3.67
			C436.59,99.33,437.44,100.66,437.44,102.91z M433.6,103.01c0,1.84,0.56,2.88,1.43,2.88c0.98,0,1.44-1.14,1.44-2.94
			c0-1.74-0.45-2.88-1.43-2.88C434.21,100.07,433.6,101.09,433.6,103.01z"/>
	</g>
	<g>
		<path d="M91.98,103.22v0.71H89.3v-0.71H91.98z"/>
		<path d="M97.01,100.26h-2.69l-0.27,1.81c0.16-0.02,0.32-0.04,0.58-0.04c0.54,0,1.09,0.12,1.52,0.38c0.55,0.31,1.01,0.92,1.01,1.81
			c0,1.38-1.1,2.41-2.63,2.41c-0.77,0-1.42-0.22-1.76-0.43l0.24-0.73c0.29,0.17,0.87,0.39,1.51,0.39c0.9,0,1.67-0.59,1.67-1.53
			c-0.01-0.91-0.62-1.56-2.03-1.56c-0.4,0-0.72,0.04-0.98,0.08l0.46-3.39h3.38V100.26z"/>
		<path d="M103.06,102.91c0,2.4-0.89,3.73-2.45,3.73c-1.38,0-2.31-1.29-2.33-3.63c0-2.37,1.02-3.67,2.45-3.67
			C102.21,99.33,103.06,100.66,103.06,102.91z M99.23,103.01c0,1.84,0.56,2.88,1.43,2.88c0.98,0,1.44-1.14,1.44-2.94
			c0-1.74-0.45-2.88-1.43-2.88C99.84,100.07,99.23,101.09,99.23,103.01z"/>
	</g>
	<g>
		<path d="M483.45,175.05v0.63l-3.07,6.43h-0.99l3.06-6.24v-0.02H479v-0.79H483.45z"/>
		<path d="M488.66,175.85h-2.69l-0.27,1.81c0.16-0.02,0.32-0.04,0.58-0.04c0.54,0,1.09,0.12,1.52,0.38
			c0.55,0.31,1.01,0.92,1.01,1.81c0,1.38-1.1,2.41-2.63,2.41c-0.77,0-1.42-0.22-1.76-0.43l0.24-0.73c0.29,0.17,0.87,0.39,1.51,0.39
			c0.9,0,1.67-0.59,1.67-1.53c-0.01-0.91-0.62-1.56-2.03-1.56c-0.4,0-0.72,0.04-0.98,0.08l0.46-3.39h3.38V175.85z"/>
	</g>
	<g>
		<path d="M43.76,178.81v0.71h-2.68v-0.71H43.76z"/>
		<path d="M49.16,175.05v0.63l-3.07,6.43h-0.99l3.06-6.24v-0.02H44.7v-0.79H49.16z"/>
		<path d="M54.36,175.85h-2.69l-0.27,1.81c0.16-0.02,0.32-0.04,0.58-0.04c0.54,0,1.09,0.12,1.52,0.38c0.55,0.31,1.01,0.92,1.01,1.81
			c0,1.38-1.1,2.41-2.63,2.41c-0.77,0-1.42-0.22-1.76-0.43l0.24-0.73c0.29,0.17,0.87,0.39,1.51,0.39c0.9,0,1.67-0.59,1.67-1.53
			c-0.01-0.91-0.62-1.56-2.03-1.56c-0.4,0-0.72,0.04-0.98,0.08l0.46-3.39h3.38V175.85z"/>
	</g>
	<g>
		<path d="M492.93,263.91h-0.02l-1.23,0.66l-0.18-0.73l1.54-0.83h0.81v7.06h-0.92V263.91z"/>
		<path d="M501.12,266.47c0,2.4-0.89,3.73-2.45,3.73c-1.38,0-2.31-1.29-2.34-3.63c0-2.37,1.02-3.67,2.45-3.67
			C500.27,262.9,501.12,264.23,501.12,266.47z M497.28,266.58c0,1.84,0.56,2.88,1.43,2.88c0.98,0,1.44-1.14,1.44-2.94
			c0-1.74-0.45-2.88-1.43-2.88C497.89,263.64,497.28,264.66,497.28,266.58z"/>
		<path d="M506.69,266.47c0,2.4-0.89,3.73-2.45,3.73c-1.38,0-2.31-1.29-2.34-3.63c0-2.37,1.02-3.67,2.45-3.67
			C505.84,262.9,506.69,264.23,506.69,266.47z M502.86,266.58c0,1.84,0.56,2.88,1.43,2.88c0.98,0,1.44-1.14,1.44-2.94
			c0-1.74-0.45-2.88-1.43-2.88C503.47,263.64,502.86,264.66,502.86,266.58z"/>
	</g>
	<g>
		<path d="M27.28,266.79v0.71H24.6v-0.71H27.28z"/>
		<path d="M30.18,263.91h-0.02l-1.23,0.66l-0.18-0.73l1.54-0.83h0.81v7.06h-0.92V263.91z"/>
		<path d="M38.37,266.47c0,2.4-0.89,3.73-2.45,3.73c-1.38,0-2.31-1.29-2.33-3.63c0-2.37,1.02-3.67,2.45-3.67
			C37.52,262.9,38.37,264.23,38.37,266.47z M34.53,266.58c0,1.84,0.57,2.88,1.43,2.88c0.98,0,1.44-1.14,1.44-2.94
			c0-1.74-0.45-2.88-1.43-2.88C35.14,263.64,34.53,264.66,34.53,266.58z"/>
		<path d="M43.94,266.47c0,2.4-0.89,3.73-2.45,3.73c-1.38,0-2.31-1.29-2.33-3.63c0-2.37,1.02-3.67,2.45-3.67
			C43.09,262.9,43.94,264.23,43.94,266.47z M40.11,266.58c0,1.84,0.57,2.88,1.43,2.88c0.98,0,1.44-1.14,1.44-2.94
			c0-1.74-0.45-2.88-1.43-2.88C40.71,263.64,40.11,264.66,40.11,266.58z"/>
	</g>
</g>
<g id="gauge-needle">
	<polygon class="st6" points="266,13.24 256.81,270.2 275.19,270.2 	"/>
</g>
</svg>
